<svg width="24" height="24" viewBox="0 0 24 24" fill="none" xmlns="http://www.w3.org/2000/svg">
<path d="M19.7778 5H4.22222C3.63285 5 3.06762 5.22692 2.65087 5.63085C2.23413 6.03477 2 6.58261 2 7.15385V12H22V7.15385C22 6.58261 21.7659 6.03477 21.3491 5.63085C20.9324 5.22692 20.3671 5 19.7778 5Z" fill="#005BBB"/>
<path d="M22 16.8462C22 17.4174 21.7659 17.9652 21.3491 18.3692C20.9324 18.7731 20.3671 19 19.7778 19H4.22222C3.63285 19 3.06762 18.7731 2.65087 18.3692C2.23413 17.9652 2 17.4174 2 16.8462V12H22V16.8462Z" fill="#FFD500"/>
</svg>
