<svg width="24" height="24" viewBox="0 0 24 24" fill="none" xmlns="http://www.w3.org/2000/svg">
<path d="M2 16.8462C2 17.4174 2.23413 17.9652 2.65087 18.3692C3.06762 18.7731 3.63285 19 4.22222 19H19.7778C20.3671 19 20.9324 18.7731 21.3491 18.3692C21.7659 17.9652 22 17.4174 22 16.8462V14.6923H2V16.8462Z" fill="#FFCD05"/>
<path d="M2 9.84615H22V14.6923H2V9.84615Z" fill="#ED1F24"/>
<path d="M19.7778 5H4.22222C3.63285 5 3.06762 5.22692 2.65087 5.63085C2.23413 6.03477 2 6.58261 2 7.15385V9.84615H22V7.15385C22 6.58261 21.7659 6.03477 21.3491 5.63085C20.9324 5.22692 20.3671 5 19.7778 5Z" fill="#141414"/>
</svg>
