<svg width="678" height="452" viewBox="0 0 678 452" fill="none" xmlns="http://www.w3.org/2000/svg">
<path d="M636.579 173.206C629.455 147.551 581.968 175.457 581.968 175.457L594.398 152.912C595.901 150.645 597.217 148.26 598.33 145.779C604.577 131.821 604.496 116.851 598.33 103.888C596.64 95.9958 591.442 84.7139 577.222 72.32C550.31 48.9516 460.082 32.9508 433.92 36.5035C407.758 40.0563 457.668 51.0489 457.668 51.0489H453.718C377.646 42.9852 301.104 41.9456 225.159 43.5186C206.112 43.9073 187.01 44.5401 168.361 47.7493C163 48.6533 157.233 50.0906 154.033 54.4208C139.894 73.6127 197.886 75.484 207.016 75.1134C167.177 80.2933 122.944 81.8843 85.8799 97.2794C80.7181 99.4219 75.5924 101.971 71.6962 105.94C67.7999 109.908 65.2687 115.558 66.1456 121.226C68.7039 137.67 91.3039 142.552 104.177 146.204C104.177 146.204 30.302 195.327 39.0075 220.26C42.9617 232.101 49.4072 242.958 57.9102 252.098C52.2667 259.038 47.3983 266.574 43.3919 274.572C41.0325 279.399 37.9679 286.008 40.5805 291.567C54.032 319.88 258.092 417.097 421.607 389.344C465.045 381.976 508.31 369.79 546.359 348.239C584.255 326.787 622.874 291.35 632.42 246.674C632.737 245.201 632.963 243.773 633.125 242.38C639.128 221.796 642.545 194.667 636.579 173.206Z" fill="#0AA778"/>
<path opacity="0.8" d="M636.579 173.206C629.455 147.551 581.968 175.457 581.968 175.457L594.398 152.912C595.901 150.645 597.217 148.26 598.33 145.779C604.577 131.821 604.496 116.851 598.33 103.888C596.64 95.9958 591.442 84.7139 577.222 72.32C550.31 48.9516 460.082 32.9508 433.92 36.5035C407.758 40.0563 457.668 51.0489 457.668 51.0489H453.718C377.646 42.9852 301.104 41.9456 225.159 43.5186C206.112 43.9073 187.01 44.5401 168.361 47.7493C163 48.6533 157.233 50.0906 154.032 54.4208C139.894 73.6127 197.886 75.484 207.016 75.1134C167.177 80.2933 122.944 81.8843 85.8799 97.2795C80.7181 99.4219 75.5924 101.971 71.6962 105.94C67.7999 109.908 66.2722 115.486 66.1456 121.226C65.784 136.386 90.1558 142.018 104.213 146.204C104.213 146.204 30.3382 195.327 39.0437 220.26C42.9978 232.101 49.4434 242.958 57.9463 252.098C52.2902 259.037 47.4097 266.573 43.3919 274.572C41.0325 279.399 37.9679 286.008 40.5805 291.567C54.032 319.88 258.092 417.097 421.607 389.344C465.045 381.976 508.31 369.79 546.359 348.239C584.255 326.787 622.874 291.35 632.42 246.674C632.737 245.201 632.963 243.773 633.125 242.38C639.128 221.796 642.545 194.667 636.579 173.206Z" fill="white"/>
<path d="M520.215 146.376L519.772 145.969C519.718 145.924 514.348 141.069 510.018 141.928C505.688 142.787 504.856 145.219 504.82 145.327L503.961 145.038C503.961 144.911 505.028 142.009 509.837 141.042C513.914 140.228 518.516 143.754 519.944 144.92C520.848 143.194 524.066 137.77 527.402 137.354C531.244 136.875 535.403 140.066 535.538 140.21L534.987 140.925C534.942 140.925 530.928 137.815 527.474 138.213C524.021 138.61 520.478 145.734 520.441 145.806L520.215 146.376Z" fill="#263238"/>
<path d="M508.22 163.904L507.777 163.497C507.722 163.452 502.353 158.589 498.022 159.457C493.692 160.324 492.87 162.747 492.833 162.847L491.975 162.557C491.975 162.44 493.032 159.538 497.851 158.571C501.919 157.757 506.52 161.283 507.948 162.449C508.852 160.722 512.071 155.289 515.406 154.873C519.257 154.403 523.407 157.585 523.542 157.739L522.991 158.453C522.991 158.453 518.941 155.334 515.488 155.741C512.034 156.148 508.491 163.262 508.455 163.335L508.22 163.904Z" fill="#263238"/>
<path d="M548.294 163.904L547.851 163.497C547.851 163.497 543.774 159.8 540.519 160.451C537.265 161.102 536.677 162.883 536.65 162.964L535.792 162.675C535.792 162.575 536.623 160.306 540.312 159.565C543.349 158.959 546.784 161.463 547.986 162.458C548.773 161.021 551.169 157.034 553.682 156.745C556.647 156.383 559.847 158.842 560.01 158.95L559.458 159.664C559.458 159.664 556.421 157.314 553.817 157.649C551.72 157.911 549.297 161.861 548.556 163.371L548.294 163.904Z" fill="#263238"/>
<path d="M595.437 182.355L594.995 181.948C594.995 181.948 592.364 179.58 590.321 179.986C588.278 180.393 587.916 181.487 587.898 181.532L586.994 181.243C586.994 181.18 587.573 179.607 590.104 179.1C592.048 178.712 594.208 180.185 595.121 180.908C595.727 179.824 597.236 177.455 598.882 177.292C600.871 177.03 603.04 178.694 603.131 178.766L602.579 179.48C602.579 179.48 600.608 177.98 598.963 178.187C597.652 178.35 596.115 180.899 595.627 181.858L595.437 182.355Z" fill="#263238"/>
<path d="M372.602 161.427H192.037L192.525 160.722C192.724 160.433 197.397 153.788 203.282 154.322C204.25 154.412 205.172 154.512 205.994 154.611C210.162 155.072 213.172 155.407 214.736 153.454C215.315 152.552 215.628 151.506 215.64 150.435C215.902 148.328 216.192 145.915 220.079 144.522C222.384 143.682 224.78 144.324 227.094 144.947C229.571 145.616 231.912 146.249 233.973 145.074C236.034 143.899 236.405 141.539 236.785 139.044C236.928 137.32 237.423 135.643 238.24 134.117C240.726 130.257 246.15 128.196 250.037 128.196H250.11C252.731 128.196 255.082 129.417 257.342 130.565C259.927 131.885 262.377 133.132 265.098 132.662C265.947 132.451 266.733 132.037 267.388 131.456C268.043 130.875 268.547 130.144 268.859 129.326C269.705 127.241 270.326 125.071 270.712 122.854C271.507 119.048 272.258 115.45 275.883 112.114C280.051 108.468 285.226 106.171 290.726 105.524C312.929 102.378 337.454 118.894 342.2 140.192C342.2 140.364 343.213 144.495 346.928 144.495C348.223 144.371 349.495 144.066 350.707 143.591C355.299 142.073 362.233 139.767 367.476 147.84C374.156 158.119 372.828 160.957 372.656 161.246L372.602 161.427ZM193.818 160.523H372.014C372.15 159.719 372.15 156.528 366.798 148.292C361.934 140.816 355.652 142.868 351.068 144.414C349.769 144.935 348.402 145.266 347.009 145.399C342.562 145.399 341.414 140.445 341.395 140.391C336.749 119.518 312.703 103.327 290.934 106.419C285.617 107.031 280.61 109.237 276.57 112.747C273.171 115.884 272.447 119.337 271.679 122.998C271.283 125.278 270.643 127.508 269.772 129.652C269.408 130.613 268.813 131.469 268.038 132.144C267.264 132.819 266.335 133.292 265.333 133.521C262.314 134.036 259.62 132.617 257.007 131.333C254.837 130.23 252.587 129.082 250.182 129.064H250.11C246.412 129.064 241.305 131.116 239.072 134.569C238.32 136.012 237.871 137.593 237.752 139.216C237.354 141.81 236.938 144.495 234.488 145.888C232.039 147.28 229.471 146.547 226.931 145.888C224.752 145.3 222.492 144.694 220.458 145.436C217.096 146.656 216.842 148.572 216.616 150.606C216.578 151.85 216.186 153.057 215.486 154.087C213.615 156.428 210.225 156.048 205.94 155.569C205.036 155.47 204.132 155.37 203.228 155.289C198.925 154.828 195.174 158.851 193.818 160.523Z" fill="#263238"/>
<path d="M404.314 114.654H331.198L331.686 113.94C331.768 113.823 333.729 111.029 336.206 111.228L337.318 111.346C339.063 111.545 340.076 111.617 340.582 110.984C340.788 110.663 340.898 110.29 340.898 109.908C340.901 109.322 341.093 108.752 341.447 108.284C341.801 107.817 342.296 107.476 342.86 107.314C343.844 107.055 344.884 107.112 345.834 107.477C346.644 107.835 347.561 107.864 348.392 107.558C349.107 107.142 349.233 106.301 349.387 105.334C349.443 104.601 349.656 103.889 350.01 103.246C350.593 102.481 351.341 101.859 352.199 101.427C353.058 100.994 354.003 100.763 354.964 100.751C356.034 100.832 357.069 101.167 357.984 101.727C358.852 102.311 359.886 102.597 360.931 102.541C361.227 102.463 361.5 102.316 361.728 102.112C361.956 101.907 362.132 101.652 362.242 101.366C362.569 100.543 362.812 99.6885 362.965 98.8162C363.154 97.1299 363.917 95.5597 365.125 94.3686C366.839 92.8691 368.966 91.9236 371.227 91.6566C380.267 90.3729 390.211 97.0806 392.173 105.777C392.173 105.84 392.544 107.287 393.809 107.287C394.299 107.23 394.78 107.109 395.238 106.925C397.163 106.292 400.056 105.325 402.28 108.733C404.928 112.81 404.54 114.103 404.359 114.401L404.314 114.654ZM333.024 113.75H403.672C403.672 113.271 403.374 111.942 401.602 109.23C399.83 106.518 397.461 107.169 395.608 107.784C395.059 108.003 394.48 108.14 393.891 108.191C393.28 108.157 392.699 107.919 392.241 107.513C391.783 107.108 391.476 106.56 391.368 105.958C389.56 97.7224 380.023 91.3311 371.435 92.5515C369.354 92.7966 367.394 93.6629 365.812 95.0375C364.741 96.0999 364.076 97.5041 363.932 99.0061C363.767 99.9344 363.506 100.843 363.155 101.718C362.989 102.144 362.721 102.523 362.374 102.821C362.027 103.119 361.612 103.327 361.166 103.427C359.928 103.527 358.693 103.209 357.658 102.523C356.864 102.026 355.968 101.717 355.037 101.619C354.221 101.619 353.416 101.806 352.684 102.167C351.952 102.527 351.312 103.051 350.815 103.698C350.537 104.238 350.371 104.828 350.327 105.434C350.164 106.482 349.974 107.675 348.88 108.299C347.787 108.923 346.72 108.607 345.644 108.299C344.871 107.995 344.024 107.929 343.212 108.109C342.813 108.21 342.46 108.444 342.212 108.773C341.963 109.102 341.835 109.506 341.847 109.917C341.829 110.466 341.65 110.998 341.332 111.445C340.491 112.503 339.063 112.349 337.264 112.141L336.17 112.033C334.878 112.033 333.693 113 333.024 113.75Z" fill="#263238"/>
<path d="M557.904 219.925H484.788L485.285 219.22C485.367 219.102 487.328 216.3 489.805 216.508L490.917 216.626C492.662 216.815 493.629 216.897 494.181 216.264C494.386 215.942 494.499 215.57 494.506 215.188C494.508 214.603 494.699 214.034 495.051 213.566C495.403 213.099 495.897 212.758 496.459 212.594C497.442 212.33 498.484 212.387 499.433 212.756C500.243 213.117 501.162 213.143 501.991 212.829C502.705 212.422 502.832 211.581 502.986 210.605C503.046 209.876 503.259 209.168 503.609 208.526C504.195 207.756 504.95 207.131 505.815 206.699C506.68 206.266 507.632 206.038 508.599 206.031C509.685 206.111 510.735 206.449 511.664 207.016C512.533 207.597 513.567 207.882 514.611 207.83C514.906 207.751 515.178 207.604 515.404 207.4C515.631 207.195 515.805 206.94 515.913 206.654C516.244 205.833 516.486 204.978 516.636 204.105C516.825 202.419 517.588 200.849 518.797 199.657C520.508 198.155 522.636 197.209 524.899 196.945C533.939 195.662 543.883 202.369 545.844 211.057C545.844 211.129 546.215 212.576 547.48 212.576C547.97 212.516 548.45 212.394 548.909 212.214C550.834 211.572 553.736 210.614 555.951 214.022C558.6 218.09 558.211 219.392 558.039 219.69L557.904 219.925ZM486.614 219.021H557.262C557.262 218.551 556.963 217.258 555.192 214.501C553.42 211.744 551.051 212.44 549.198 213.055C548.649 213.274 548.07 213.411 547.48 213.462C546.873 213.427 546.294 213.188 545.839 212.785C545.383 212.382 545.076 211.837 544.967 211.238C543.159 202.993 533.631 196.593 525.025 197.822C522.943 198.06 520.983 198.924 519.402 200.299C518.337 201.366 517.673 202.768 517.522 204.268C517.358 205.196 517.097 206.105 516.744 206.98C516.581 207.407 516.315 207.787 515.969 208.086C515.624 208.386 515.21 208.596 514.765 208.697C513.525 208.79 512.289 208.472 511.248 207.793C510.458 207.288 509.56 206.978 508.627 206.889C507.817 206.901 507.019 207.093 506.293 207.453C505.568 207.813 504.931 208.331 504.432 208.969C504.154 209.509 503.988 210.099 503.944 210.704C503.781 211.753 503.591 212.946 502.506 213.57C501.422 214.194 500.337 213.877 499.261 213.57C498.489 213.261 497.64 213.194 496.829 213.38C496.422 213.482 496.063 213.723 495.814 214.062C495.565 214.4 495.441 214.814 495.464 215.233C495.443 215.78 495.268 216.31 494.958 216.761C494.108 217.819 492.68 217.665 490.881 217.457C490.538 217.457 490.167 217.376 489.787 217.349C488.467 217.313 487.256 218.307 486.614 219.021Z" fill="#263238"/>
<path d="M448.927 214.935H337.536L338.033 214.23C338.15 214.049 341.07 209.882 344.795 210.225L346.494 210.397C348.998 210.677 350.815 210.885 351.71 209.755C352.057 209.215 352.245 208.589 352.253 207.947C352.241 207.093 352.513 206.259 353.027 205.577C353.541 204.894 354.267 204.402 355.091 204.177C356.556 203.644 358.056 204.042 359.503 204.431C360.949 204.819 362.396 205.217 363.598 204.521C364.8 203.825 365.017 202.433 365.243 200.95C365.329 199.866 365.637 198.81 366.147 197.849C367.702 195.427 371.11 194.134 373.542 194.134C375.142 194.269 376.689 194.774 378.062 195.608C379.635 196.403 381.108 197.153 382.727 196.882C383.22 196.756 383.676 196.513 384.055 196.173C384.434 195.833 384.726 195.406 384.905 194.93C385.418 193.658 385.796 192.338 386.035 190.988C386.532 188.62 386.993 186.387 389.263 184.299C391.852 182.034 395.067 180.606 398.483 180.203C412.197 178.26 427.366 188.466 430.304 201.637C430.358 201.89 430.955 204.15 433.016 204.15C433.795 204.066 434.559 203.875 435.285 203.581C438.16 202.632 442.517 201.185 445.79 206.293C449.876 212.567 449.162 214.429 448.981 214.718L448.927 214.935ZM339.335 214.031H448.321C448.321 213.425 448.14 211.437 445.112 206.799C442.201 202.279 438.567 203.518 435.656 204.485C434.837 204.811 433.975 205.018 433.097 205.1C430.847 205.1 429.762 203.084 429.481 201.89C426.643 189.153 411.962 179.29 398.673 181.153C395.437 181.528 392.392 182.877 389.941 185.022C387.888 186.902 387.464 188.909 386.984 191.223C386.736 192.635 386.339 194.017 385.8 195.345C385.566 195.962 385.182 196.511 384.683 196.943C384.185 197.375 383.587 197.677 382.944 197.822C381.027 198.148 379.328 197.298 377.718 196.466C376.469 195.697 375.058 195.227 373.596 195.092C371.363 195.092 368.272 196.304 366.925 198.392C366.483 199.234 366.215 200.156 366.138 201.104C365.885 202.74 365.623 204.431 364.05 205.326C362.477 206.221 360.868 205.759 359.268 205.326C357.894 204.955 356.601 204.602 355.399 205.045C353.428 205.759 353.301 206.853 353.148 208.074C353.126 208.873 352.872 209.65 352.415 210.307C351.204 211.816 349.08 211.581 346.395 211.283L344.713 211.102C342.381 210.903 340.302 212.919 339.335 214.031Z" fill="#263238"/>
<path d="M455.86 353.374C455.86 353.374 449.27 346.548 451.114 346.747C452.958 346.946 456.43 352.063 456.43 352.063C456.43 352.063 456.475 340.808 458.12 343.267C459.766 345.726 457.75 352.108 457.75 352.108C457.75 352.108 462.45 344.776 462.441 345.97C462.441 349.676 458.825 352.578 458.825 352.578C458.825 352.578 466.356 347 465.153 349.26C463.951 351.52 459.106 353.663 459.106 353.663C459.106 353.663 467.784 351.909 464.701 353.148C461.619 354.386 458.69 355.227 458.69 355.227H456.285C456.285 355.227 448.095 351.114 451.178 351.728C452.818 352.017 454.4 352.573 455.86 353.374Z" fill="#263238"/>
<path d="M542.906 332.003C542.906 332.003 537.772 326.687 539.218 326.85C540.664 327.013 543.349 330.982 543.349 330.982C543.349 330.982 543.349 322.222 544.669 324.138C545.989 326.055 544.371 331.018 544.371 331.018C544.371 331.018 548.032 325.313 547.987 326.245C547.987 329.128 545.166 331.388 545.166 331.388C545.166 331.388 551.024 327.04 550.066 328.803C549.108 330.566 545.365 332.229 545.365 332.229C545.365 332.229 552.118 330.864 549.714 331.822C547.309 332.78 545.031 333.44 545.031 333.44H543.169C543.169 333.44 536.786 330.24 539.191 330.728C540.491 330.947 541.746 331.377 542.906 332.003Z" fill="#263238"/>
<path d="M623.76 312.938C623.76 312.938 618.635 307.622 620.072 307.785C621.509 307.948 624.203 311.916 624.203 311.916C624.203 311.916 624.203 303.156 625.523 305.073C626.843 306.989 625.234 311.952 625.234 311.952C625.234 311.952 628.85 306.248 628.85 307.179C628.85 310.063 626.029 312.323 626.029 312.323C626.029 312.323 631.887 307.984 630.929 309.737C629.971 311.491 626.219 313.164 626.219 313.164C626.219 313.164 632.972 311.799 630.576 312.757C628.181 313.715 625.894 314.375 625.894 314.375H624.022C624.022 314.375 617.694 311.175 620.045 311.663C621.345 311.879 622.601 312.31 623.76 312.938Z" fill="#263238"/>
<path d="M520.704 356.483C520.704 356.483 514.575 350.155 516.302 350.327C518.028 350.499 521.238 355.263 521.238 355.263C521.238 355.263 521.238 344.804 522.811 347.127C524.384 349.45 522.512 355.272 522.512 355.272C522.512 355.272 526.888 348.456 526.879 349.568C526.879 353.012 523.507 355.706 523.507 355.706C523.507 355.706 530.504 350.526 529.356 352.623C528.208 354.721 523.742 356.718 523.742 356.718C523.742 356.718 531.805 355.091 528.94 356.239C526.074 357.387 523.344 358.165 523.344 358.165H521.12C521.12 358.165 513.499 354.35 516.365 354.919C517.886 355.204 519.351 355.732 520.704 356.483Z" fill="#0AA778"/>
<path d="M399.134 329.246L345.211 268.786L333.287 278.324L273.749 188.692L221.986 200.227L206.474 171.254L191.422 170.458L163.082 114.555L120.702 153.228L100.172 145.897L25.511 222.013L24.8691 221.381L99.9283 144.848L120.494 152.197L163.353 113.09L191.992 169.581L207.025 170.377L222.456 199.196L274.165 187.679L274.337 187.933L333.495 277.004L345.31 267.548L399.812 328.64L399.134 329.246Z" fill="#263238"/>
<path d="M404.291 333.683L403.616 334.284L409.302 340.66L409.977 340.058L404.291 333.683Z" fill="#263238"/>
<path d="M194.331 206.694L189.846 207.91L190.083 208.783L194.567 207.566L194.331 206.694Z" fill="#263238"/>
<path d="M222.003 199.195L199.38 205.333L199.617 206.205L222.239 200.067L222.003 199.195Z" fill="#263238"/>
<path d="M137.119 173.884L136.369 173.378L148.943 154.819L148.094 148.437L148.148 148.31L162.693 118.795L163.507 119.192L149.025 148.59L149.883 155.036L137.119 173.884Z" fill="#263238"/>
<path d="M134.254 176.495L131.077 181.19L131.826 181.696L135.003 177.002L134.254 176.495Z" fill="#263238"/>
<path d="M111.427 192.234L90.8711 220.095L91.5985 220.632L112.154 192.771L111.427 192.234Z" fill="#263238"/>
<path d="M114.04 190.22L113.308 189.686L116.029 185.998L117.285 169.672L105.841 160.342L100.661 148.699L101.483 148.328L106.573 159.782L118.225 169.274L116.915 186.323L114.04 190.22Z" fill="#263238"/>
<path d="M195.942 181.74L191.802 174.843L192.579 174.373L196.141 180.312L206.438 170.485L207.061 171.136L195.942 181.74Z" fill="#263238"/>
<path d="M404.739 326.344L404.151 325.657L419.917 312.142L451.033 318.814L499.334 251.194L499.65 251.303L530.522 261.6L555.843 225.855L556.213 226.108L639.399 284.787L638.875 285.528L556.06 227.112L530.874 262.666L499.677 252.27L451.431 319.826L420.161 313.128L404.739 326.344Z" fill="#263238"/>
<path d="M546.378 270.585L534.219 265.27L534.58 264.438L545.745 269.32L555.508 226.38L556.394 226.579L546.378 270.585Z" fill="#263238"/>
<path d="M475.658 325.865L458.509 322.891L458.662 321.996L475.052 324.843L499.342 254.142L500.201 254.431L475.658 325.865Z" fill="#263238"/>
<path d="M498.646 249.206C493.517 249.188 488.434 250.181 483.688 252.127C478.942 254.074 474.625 256.936 470.986 260.551C467.346 264.165 464.454 268.461 462.474 273.194C460.495 277.926 459.467 283.002 459.449 288.132C459.432 297.714 462.976 306.961 469.393 314.077C474.005 313.421 478.707 313.851 483.125 315.333C488.057 316.978 492.594 319.628 496.45 323.117H499.966C503.825 319.629 508.365 316.979 513.3 315.333C517.953 313.765 522.923 313.373 527.764 314.194C534.27 307.074 537.878 297.777 537.88 288.132C537.861 283 536.831 277.921 534.849 273.187C532.867 268.453 529.971 264.155 526.328 260.541C522.684 256.926 518.364 254.064 513.615 252.119C508.865 250.174 503.779 249.184 498.646 249.206Z" fill="#0AA778"/>
<path d="M516.889 303.744C515.684 304.347 514.478 304.949 513.273 305.552C512.092 306.192 510.948 306.898 509.847 307.667C509.44 307.948 509.042 308.246 508.635 308.571L515.063 296.611L506.249 310.406C505.345 311.13 504.441 311.862 503.618 312.612C502.202 313.818 500.816 315.083 499.46 316.409L499.008 303.437L508.229 289.398L499.008 301.439L498.601 289.831L497.914 302.84L497.254 315.858C496.07 314.746 494.877 313.661 493.638 312.594C492.671 311.753 491.685 310.922 490.682 310.126L482.347 295.888L488.467 308.445C488.115 308.192 487.771 307.93 487.41 307.685C486.308 306.916 485.165 306.21 483.983 305.57C482.808 304.946 481.606 304.341 480.367 303.762C477.955 302.583 475.48 301.536 472.955 300.625C475.399 301.699 477.784 302.906 480.096 304.241C481.253 304.892 482.392 305.561 483.513 306.248C484.615 306.938 485.674 307.693 486.686 308.508C488.702 310.121 490.625 311.847 492.445 313.679C494.036 315.261 495.591 316.906 497.073 318.561L496.296 335.031H500.156L499.604 319.175C501.259 317.277 503.022 315.415 504.83 313.616C506.649 311.784 508.572 310.058 510.588 308.445C511.6 307.63 512.66 306.875 513.761 306.185C514.882 305.498 516.021 304.829 517.178 304.178C519.494 302.843 521.881 301.636 524.329 300.562C521.792 301.485 519.309 302.548 516.889 303.744Z" fill="#263238"/>
<path d="M197.714 302.623C197.714 313.806 191.44 314.646 183.702 314.646C175.964 314.646 169.69 313.806 169.69 302.623C169.69 291.441 175.964 268.054 183.702 268.054C191.44 268.054 197.714 291.432 197.714 302.623Z" fill="#0AA778"/>
<path d="M188.439 307.694L186.124 307.857L192.154 303.789L187.851 305.968L188.439 304.259L186.468 306.664L184.154 307.83L183.973 299.803L185.202 296.828L183.946 298.501L183.837 293.845L187.679 288.72L183.81 292.679L183.575 282.428L183.367 288.991L180.908 286.243L183.331 290.247L183.006 300.643L180.854 299.242L178.901 295.78L179.688 298.474L175.855 295.97L182.96 302.099L181.885 336.207H184.805L184.19 309.159L184.868 308.707L188.439 307.694Z" fill="#263238"/>
<path d="M574.51 264.104C574.51 285.953 562.252 287.608 547.137 287.608C532.022 287.608 519.764 285.953 519.764 264.104C519.764 242.254 532.013 196.557 547.137 196.557C562.261 196.557 574.51 242.272 574.51 264.104Z" fill="#0AA778"/>
<path opacity="0.31" d="M574.51 264.104C574.51 285.953 562.252 287.608 547.137 287.608C532.022 287.608 519.764 285.953 519.764 264.104C519.764 242.254 532.013 196.557 547.137 196.557C562.261 196.557 574.51 242.272 574.51 264.104Z" fill="white"/>
<path d="M556.394 274.02L551.865 274.328L563.653 266.382L555.237 270.64L556.394 267.313L552.543 271.996L548.023 274.283L547.661 258.589L550.057 252.776L547.607 256.049L547.399 246.946L554.902 236.947L547.345 244.677L546.884 224.644L546.486 237.472L541.668 232.102L546.405 239.931L545.763 260.234L541.577 257.495L537.762 250.733L539.29 256.004L531.796 251.104L545.672 263.073L543.575 329.725H549.288L548.077 276.877L549.406 275.991L556.394 274.02Z" fill="#263238"/>
<path d="M633.107 272.701C633.107 283.892 626.834 284.733 619.095 284.733C611.357 284.733 605.083 283.892 605.083 272.701C605.083 261.509 611.357 238.141 619.095 238.141C626.834 238.141 633.107 261.518 633.107 272.701Z" fill="#0AA778"/>
<path opacity="0.5" d="M633.107 272.701C633.107 283.892 626.834 284.733 619.095 284.733C611.357 284.733 605.083 283.892 605.083 272.701C605.083 261.509 611.357 238.141 619.095 238.141C626.834 238.141 633.107 261.518 633.107 272.701Z" fill="white"/>
<path d="M623.832 277.781L621.518 277.935L627.548 273.867L623.236 276.045L623.832 274.346L621.862 276.742L619.547 277.917L619.366 269.88L620.587 266.906L619.339 268.578L619.231 263.923L623.073 258.806L619.204 262.766L618.969 252.514L618.761 259.068L616.302 256.329L618.725 260.334L618.39 270.73L616.248 269.32L614.295 265.857L615.082 268.56L611.249 266.047L618.345 272.176L617.269 306.284H620.198L619.583 279.246L620.252 278.785L623.832 277.781Z" fill="#263238"/>
<path d="M62.0777 263.245C62.0777 274.427 55.804 275.277 48.0657 275.277C40.3275 275.277 34.0537 274.427 34.0537 263.245C34.0537 252.062 40.3275 228.712 48.0657 228.712C55.804 228.712 62.0777 252.062 62.0777 263.245Z" fill="#0AA778"/>
<path opacity="0.5" d="M62.0777 263.245C62.0777 274.427 55.804 275.277 48.0657 275.277C40.3275 275.277 34.0537 274.427 34.0537 263.245C34.0537 252.062 40.3275 228.712 48.0657 228.712C55.804 228.712 62.0777 252.062 62.0777 263.245Z" fill="white"/>
<path d="M52.8029 268.316L50.4887 268.479L56.5184 264.411L52.2063 266.59L52.8029 264.89L50.8322 267.286L48.518 268.452L48.3372 260.424L49.5576 257.45L48.31 259.123L48.2016 254.467L52.0345 249.35L48.1744 253.301L47.9394 243.058L47.7315 249.612L45.2726 246.864L47.6953 250.878L47.3699 261.265L45.2184 259.864L43.2657 256.402L44.0522 259.104L40.2192 256.591L47.3156 262.72L46.2399 296.828H49.1688L48.5541 269.781L49.2231 269.329L52.8029 268.316Z" fill="#263238"/>
<path d="M131.496 237.879C126.366 237.861 121.283 238.853 116.537 240.8C111.791 242.747 107.475 245.609 103.835 249.224C100.195 252.838 97.3031 257.134 95.3236 261.867C93.3442 266.599 92.3162 271.675 92.2984 276.805C92.2815 286.39 95.8253 295.639 102.242 302.759C106.854 302.099 111.557 302.526 115.974 304.006C120.907 305.651 125.444 308.301 129.299 311.79H132.888C136.747 308.302 141.287 305.652 146.222 304.006C150.877 302.447 155.844 302.056 160.686 302.867C167.18 295.741 170.775 286.446 170.766 276.805C170.747 271.669 169.715 266.588 167.731 261.851C165.747 257.115 162.848 252.816 159.201 249.201C155.553 245.585 151.229 242.724 146.475 240.782C141.721 238.839 136.631 237.852 131.496 237.879Z" fill="#0AA778"/>
<path opacity="0.33" d="M131.496 237.879C126.366 237.861 121.283 238.853 116.537 240.8C111.791 242.747 107.475 245.609 103.835 249.224C100.195 252.838 97.3031 257.134 95.3236 261.867C93.3442 266.599 92.3162 271.675 92.2984 276.805C92.2815 286.39 95.8253 295.639 102.242 302.759C106.854 302.099 111.557 302.526 115.974 304.006C120.907 305.651 125.444 308.301 129.299 311.79H132.888C136.747 308.302 141.287 305.652 146.222 304.006C150.877 302.447 155.844 302.056 160.686 302.867C167.18 295.741 170.775 286.446 170.766 276.805C170.747 271.669 169.715 266.588 167.731 261.851C165.747 257.115 162.848 252.816 159.201 249.201C155.553 245.585 151.229 242.724 146.475 240.782C141.721 238.839 136.631 237.852 131.496 237.879Z" fill="white"/>
<path d="M149.739 292.426C148.533 293.029 147.328 293.631 146.123 294.234C144.94 294.867 143.796 295.571 142.696 296.34L141.485 297.244L147.913 285.275L139.099 299.079C138.201 299.797 137.324 300.529 136.468 301.276C135.049 302.515 133.666 303.771 132.31 305.073L131.858 292.1L141.078 278.061L131.794 290.139L131.387 278.522L130.728 291.513L130.068 304.54C128.883 303.419 127.69 302.334 126.452 301.267C125.487 300.429 124.502 299.607 123.496 298.799L115.161 284.561L121.281 297.127C120.928 296.865 120.585 296.611 120.223 296.358C119.124 295.589 117.98 294.885 116.797 294.252C115.622 293.619 114.419 293.014 113.181 292.444C110.768 291.265 108.294 290.218 105.768 289.307C108.245 290.365 110.659 291.564 113 292.896C114.157 293.547 115.296 294.219 116.417 294.912C117.518 295.599 118.578 296.351 119.59 297.163C121.604 298.778 123.527 300.505 125.349 302.334C126.94 303.916 128.495 305.561 129.977 307.224L129.136 323.75H132.997L132.445 307.893C134.099 305.995 135.862 304.133 137.67 302.334C139.492 300.505 141.415 298.778 143.429 297.163C144.441 296.351 145.501 295.599 146.602 294.912C147.705 294.171 148.841 293.499 150.01 292.896C152.325 291.576 154.712 290.387 157.16 289.334C154.632 290.229 152.154 291.261 149.739 292.426Z" fill="#263238"/>
<path d="M240.32 354.052V318.208H193.628V295.246L233.675 200.326H267.837V295.789H282.636V318.208H267.837V354.079L240.32 354.052ZM216.816 295.789H240.32V230.52L216.816 295.789Z" fill="#263238"/>
<path d="M337.671 354.133C328.432 354.133 320.779 352.235 314.71 348.438C308.686 344.706 303.921 339.251 301.032 332.78C298.019 326.151 296.512 318.467 296.512 309.728V240.835C296.512 231.855 297.965 223.981 300.869 217.213C303.6 210.655 308.313 205.114 314.348 201.366C320.423 197.569 328.203 195.671 337.689 195.671C347.055 195.671 354.742 197.569 360.75 201.366C366.736 205.144 371.409 210.678 374.13 217.213C377.034 223.975 378.487 231.849 378.487 240.835V309.728C378.487 318.449 376.98 326.133 373.967 332.78C371.081 339.25 366.319 344.705 360.298 348.438C354.193 352.235 346.651 354.133 337.671 354.133ZM337.671 328.324C341.088 328.324 343.556 327.248 345.075 325.096C346.65 322.795 347.688 320.169 348.113 317.412C348.592 314.687 348.846 311.926 348.872 309.159V241.368C348.86 238.445 348.636 235.526 348.203 232.635C347.843 229.82 346.837 227.125 345.265 224.762C343.746 222.556 341.215 221.45 337.671 221.444C334.128 221.438 331.566 222.544 329.987 224.762C328.357 227.104 327.315 229.805 326.95 232.635C326.516 235.526 326.293 238.445 326.281 241.368V309.168C326.302 311.936 326.556 314.696 327.04 317.422C327.469 320.209 328.577 322.848 330.268 325.106C331.913 327.251 334.381 328.324 337.671 328.324Z" fill="#263238"/>
<path d="M441.098 354.052V318.208H394.416V295.246L434.454 200.326H468.616V295.789H483.414V318.208H468.616V354.079L441.098 354.052ZM417.594 295.789H441.098V230.52L417.594 295.789Z" fill="#263238"/>
<path d="M650.979 279.915C591.876 318.66 475.151 345.003 340.817 345.003C202.36 345.003 82.6072 316.979 25.375 276.299V432.112H650.943L650.979 279.915Z" fill="white"/>
<path d="M340.808 345.482C273.867 345.482 208.761 338.873 152.532 326.371C97.7675 314.203 53.7066 297.018 25.0679 276.651L25.5922 275.919C54.0953 296.187 98.0388 313.317 152.695 325.467C208.905 337.978 273.912 344.578 340.808 344.578C462.07 344.578 573.136 323.144 637.908 287.246L638.351 288.042C573.461 324.003 462.233 345.482 340.808 345.482Z" fill="#263238"/>
<path d="M643.142 285.311L642.681 284.534C645.555 282.843 648.358 281.099 651.007 279.363L651.504 280.113C648.837 281.867 646.025 283.612 643.142 285.311Z" fill="#263238"/>
<path d="M613.247 270.884C613.247 293.737 600.428 295.463 584.626 295.463C568.824 295.463 555.96 293.737 555.96 270.884C555.96 248.03 568.779 200.263 584.59 200.263C600.401 200.263 613.247 248.03 613.247 270.884Z" fill="#0AA778"/>
<path d="M594.299 281.252L589.562 281.578L601.901 273.27L593.087 277.718L594.299 274.246L590.276 279.146L585.548 281.533L585.177 265.116L587.681 259.05L585.114 262.458L584.897 252.948L592.744 242.489L584.843 250.571L584.364 229.625L583.939 243.031L578.913 237.418L583.857 245.608L583.188 266.843L578.813 263.977L574.817 256.908L576.418 262.413L568.589 257.296L583.098 269.808L580.901 339.506H586.877L585.611 284.245L586.994 283.314L594.299 281.252Z" fill="#263238"/>
<path d="M582.692 340.121C582.692 340.121 572.133 329.173 575.098 329.499C578.063 329.824 583.605 338.015 583.605 338.015C583.605 338.015 583.686 319.935 586.317 323.921C588.947 327.908 585.711 338.096 585.711 338.096C585.711 338.096 593.241 326.344 593.232 328.26C593.178 334.2 587.42 338.846 587.42 338.846C587.42 338.846 599.497 329.906 597.544 333.576C595.592 337.246 587.854 340.627 587.854 340.627C587.854 340.627 601.766 337.816 596.821 339.796C591.876 341.775 587.176 343.131 587.176 343.131H583.334C583.334 343.131 570.198 336.541 575.143 337.526C577.785 337.969 580.336 338.846 582.692 340.121Z" fill="#263238"/>
<path d="M76.5963 326.525C76.5963 326.525 67.4568 317.06 70.0151 317.349C72.5735 317.638 77.3827 324.708 77.3827 324.708C77.3827 324.708 77.446 309.105 79.7331 312.522C82.0203 315.939 79.2088 324.771 79.2088 324.771C79.2088 324.771 85.7267 314.61 85.7086 316.264C85.7086 321.408 80.6914 325.422 80.6914 325.422C80.6914 325.422 91.1235 317.693 89.415 320.83C87.7064 323.966 81.0349 326.923 81.0349 326.923C81.0349 326.923 93.0671 324.5 88.7912 326.208C84.5153 327.917 80.4563 329.056 80.4563 329.056H77.1206C77.1206 329.056 65.7663 323.361 70.0332 324.211C72.3322 324.62 74.5489 325.402 76.5963 326.525Z" fill="#263238"/>
<path d="M109.619 258.426C109.619 281.307 96.7915 283.033 80.9625 283.033C65.1334 283.033 52.3057 281.307 52.3057 258.426C52.3057 235.546 65.1425 187.725 80.9625 187.725C96.7825 187.725 109.619 235.546 109.619 258.426Z" fill="#0AA778"/>
<path d="M90.6531 268.804L85.9162 269.13L98.2558 260.813L89.4418 265.27L90.6531 261.789L86.6213 266.698L81.8934 269.085L81.5227 252.659L84.0268 246.575L81.4595 249.992L81.2425 240.464L89.0983 229.996L81.1883 238.096L80.7091 217.123L80.2843 230.547L75.249 224.924L80.2029 233.124L79.5339 254.377L75.1495 251.511L71.1539 244.433L72.7539 249.947L64.9072 244.821L79.4435 257.351L77.2378 327.121H83.2223L81.9567 271.806L83.3398 270.875L90.6531 268.804Z" fill="#263238"/>
<path d="M176.633 350.309C176.633 350.309 167.493 340.844 170.061 341.133C172.628 341.423 177.428 348.492 177.428 348.492C177.428 348.492 177.492 332.889 179.77 336.306C182.048 339.723 179.245 348.555 179.245 348.555C179.245 348.555 185.763 338.394 185.754 340.049C185.754 345.192 180.728 349.206 180.728 349.206C180.728 349.206 191.169 341.477 189.46 344.614C187.752 347.751 181.071 350.752 181.071 350.752C181.071 350.752 193.104 348.329 188.828 350.038C184.552 351.746 180.484 352.922 180.484 352.922H177.184C177.184 352.922 165.821 347.226 170.097 348.076C172.382 348.461 174.59 349.215 176.633 350.309Z" fill="#263238"/>
<path d="M225.096 371.056C225.096 371.056 215.956 361.591 218.524 361.88C221.091 362.17 225.891 369.239 225.891 369.239C225.891 369.239 225.955 353.636 228.233 357.053C230.511 360.47 227.708 369.302 227.708 369.302C227.708 369.302 234.226 359.141 234.217 360.804C234.172 365.939 229.191 369.953 229.191 369.953C229.191 369.953 239.632 362.224 237.924 365.361C236.215 368.498 229.616 371.454 229.616 371.454C229.616 371.454 241.648 369.031 237.372 370.739C233.096 372.448 229.028 373.623 229.028 373.623H225.711C225.711 373.623 214.347 367.928 218.623 368.778C220.889 369.183 223.075 369.952 225.096 371.056Z" fill="#263238"/>
<path d="M355.218 357.125C355.218 357.125 348.628 350.3 350.481 350.508C352.334 350.716 355.787 355.814 355.787 355.814C355.787 355.814 355.842 344.56 357.487 347.027C359.132 349.495 357.107 355.869 357.107 355.869C357.107 355.869 361.808 348.528 361.799 349.73C361.799 353.437 358.183 356.33 358.183 356.33C358.183 356.33 365.713 350.752 364.511 353.021C363.309 355.29 358.463 357.414 358.463 357.414C358.463 357.414 367.142 355.661 364.05 356.899C360.958 358.138 358.038 358.978 358.038 358.978H355.643C355.643 358.978 347.443 354.865 350.526 355.48C352.168 355.773 353.752 356.328 355.218 357.125Z" fill="#263238"/>
<path d="M611.104 340.808C611.104 340.808 605.978 335.492 607.416 335.655C608.853 335.818 611.547 339.786 611.547 339.786C611.547 339.786 611.547 331.027 612.867 332.943C614.187 334.86 612.568 339.823 612.568 339.823C612.568 339.823 616.184 334.118 616.184 335.05C616.184 337.933 613.364 340.184 613.364 340.184C613.364 340.184 619.222 335.845 618.264 337.608C617.305 339.371 613.563 341.025 613.563 341.025C613.563 341.025 620.316 339.669 617.911 340.627C615.506 341.585 613.228 342.245 613.228 342.245H611.375C611.375 342.245 604.993 339.045 607.398 339.533C608.695 339.75 609.948 340.181 611.104 340.808Z" fill="#263238"/>
<path d="M265.685 357.161C265.685 357.161 256.546 347.697 259.113 347.986C261.681 348.275 266.481 355.344 266.481 355.344C266.481 355.344 266.544 339.741 268.822 343.158C271.1 346.576 268.307 355.417 268.307 355.417C268.307 355.417 274.825 345.247 274.807 346.91C274.762 352.045 269.79 356.058 269.79 356.058C269.79 356.058 280.222 348.329 278.513 351.466C276.805 354.603 270.133 357.559 270.133 357.559C270.133 357.559 282.156 355.136 277.88 356.845C273.605 358.554 269.546 359.729 269.546 359.729H266.219C266.219 359.729 254.856 354.034 259.131 354.883C261.426 355.28 263.64 356.05 265.685 357.161Z" fill="#0AA778"/>
<path d="M199.784 350.879C199.784 350.879 193.655 344.551 195.381 344.713C197.108 344.876 200.317 349.658 200.317 349.658C200.317 349.658 200.317 339.19 201.89 341.522C203.463 343.854 201.538 349.74 201.538 349.74C201.538 349.74 205.913 342.914 205.904 344.035C205.904 347.48 202.532 350.173 202.532 350.173C202.532 350.173 209.529 344.984 208.381 347.091C207.233 349.197 202.767 351.177 202.767 351.177C202.767 351.177 210.831 349.55 207.965 350.698C205.099 351.846 202.369 352.632 202.369 352.632H200.146C200.146 352.632 192.525 348.808 195.391 349.387C196.927 349.638 198.412 350.142 199.784 350.879Z" fill="#0AA778"/>
<path d="M123.179 375.956C123.179 375.956 117.05 369.628 118.777 369.799C120.503 369.971 123.713 374.735 123.713 374.735C123.713 374.735 123.758 364.267 125.286 366.599C126.813 368.931 124.933 374.816 124.933 374.816C124.933 374.816 129.272 367.928 129.272 369.076C129.272 372.52 125.9 375.214 125.9 375.214C125.9 375.214 132.897 370.025 131.758 372.132C130.619 374.238 126.135 376.218 126.135 376.218C126.135 376.218 134.199 374.591 131.333 375.739C128.468 376.887 125.738 377.673 125.738 377.673H123.514C123.514 377.673 115.893 373.849 118.759 374.428C120.307 374.688 121.801 375.204 123.179 375.956Z" fill="#0AA778"/>
<path d="M328.152 377.185C328.152 377.185 322.023 370.857 323.74 371.029C325.458 371.2 328.685 375.965 328.685 375.965C328.685 375.965 328.73 365.496 330.258 367.829C331.786 370.161 329.905 376.046 329.905 376.046C329.905 376.046 334.281 369.23 334.263 370.342C334.263 373.786 330.9 376.48 330.9 376.48C330.9 376.48 337.897 371.291 336.749 373.397C335.601 375.504 331.126 377.483 331.126 377.483C331.126 377.483 339.199 375.856 336.333 377.004C333.467 378.152 330.737 378.939 330.737 378.939H328.504C328.504 378.939 320.893 375.115 323.758 375.693C325.295 375.945 326.78 376.449 328.152 377.185Z" fill="#0AA778"/>
<path d="M427.592 377.51C427.592 377.51 421.472 371.182 423.19 371.354C424.907 371.526 428.125 376.299 428.125 376.299C428.125 376.299 428.171 365.831 429.698 368.163C431.226 370.495 429.346 376.371 429.346 376.371C429.346 376.371 433.721 369.555 433.712 370.667C433.712 374.12 430.34 376.814 430.34 376.814C430.34 376.814 437.337 371.625 436.198 373.732C435.059 375.838 430.575 377.818 430.575 377.818C430.575 377.818 438.639 376.191 435.773 377.339C432.908 378.487 430.177 379.273 430.177 379.273H427.954C427.954 379.273 420.333 375.449 423.199 376.019C424.734 376.275 426.218 376.779 427.592 377.51Z" fill="#0AA778"/>
<path d="M612.433 357.65C612.433 357.65 603.104 347.986 605.725 348.275C608.347 348.564 613.238 355.796 613.238 355.796C613.238 355.796 613.31 339.859 615.633 343.357C617.957 346.856 615.1 355.869 615.1 355.869C615.1 355.869 621.762 345.482 621.744 347.181C621.744 352.424 616.619 356.529 616.619 356.529C616.619 356.529 627.268 348.637 625.523 351.837C623.778 355.037 616.971 358.056 616.971 358.056C616.971 358.056 629.247 355.579 624.881 357.324C620.515 359.069 616.365 360.271 616.365 360.271H612.975C612.975 360.271 601.377 354.449 605.743 355.326C608.084 355.733 610.344 356.518 612.433 357.65Z" fill="#0AA778"/>
<path d="M56.5361 357.65C56.5361 357.65 47.2068 347.986 49.8194 348.275C52.4319 348.564 57.3407 355.796 57.3407 355.796C57.3407 355.796 57.413 339.859 59.7363 343.357C62.0595 346.856 59.2029 355.869 59.2029 355.869C59.2029 355.869 65.8563 345.482 65.8473 347.181C65.8473 352.424 60.7216 356.529 60.7216 356.529C60.7216 356.529 71.4159 348.637 69.6079 351.837C67.7999 355.037 61.0471 358.056 61.0471 358.056C61.0471 358.056 73.3324 355.579 68.9661 357.324C64.5998 359.069 60.4504 360.271 60.4504 360.271H57.0785C57.0785 360.271 45.4802 354.449 49.8465 355.326C52.1875 355.733 54.4468 356.518 56.5361 357.65Z" fill="#0AA778"/>
<path d="M102.559 344.008C102.559 344.008 93.0124 327.537 95.7334 326.272C98.4545 325.006 104.086 337.526 104.086 337.526C104.086 337.526 102.993 313.923 105.533 316.102C108.073 318.28 110.432 334.986 110.432 334.986C110.432 334.986 115.522 316.825 117.158 320.64C118.794 324.455 115.847 336.008 115.847 336.008C115.847 336.008 123.143 322.113 123.875 326.651C124.607 331.189 120.422 338.629 120.422 338.629C120.422 338.629 130.04 329.011 130.772 332.826C131.505 336.641 128.232 340.446 128.232 340.446C128.232 340.446 140.933 333.549 137.851 337.364C134.768 341.179 130.23 346.078 130.23 346.078C130.23 346.078 142.389 341.721 140.933 344.27C139.478 346.82 134.036 349.532 134.036 349.532C134.036 349.532 143.98 347.724 142.931 349.351C141.915 350.626 140.693 351.723 139.315 352.596H94.1153C94.1153 352.596 82.1373 348.266 86.8833 347.904C89.9802 347.766 93.0689 348.322 95.9233 349.532C95.9233 349.532 81.2152 339.588 88.1127 338.828C95.0102 338.069 100.642 346.811 100.642 346.811C100.642 346.811 90.8428 333.016 94.3142 335.194L102.559 344.008Z" fill="#0AA778"/>
<path d="M103.174 348.691C103.174 348.691 90.8431 335.917 94.3054 336.306C97.7677 336.695 104.249 346.25 104.249 346.25C104.249 346.25 104.34 325.196 107.413 329.806C110.487 334.417 106.672 346.322 106.672 346.322C106.672 346.322 115.468 332.609 115.45 334.851C115.387 341.784 108.67 347.199 108.67 347.199C108.67 347.199 122.754 336.776 120.422 340.998C118.09 345.22 109.113 349.224 109.113 349.224C109.113 349.224 125.385 345.952 119.581 348.257C113.778 350.562 108.326 352.153 108.326 352.153H103.806C103.806 352.153 88.4384 344.46 94.2512 345.617C97.3751 346.14 100.39 347.179 103.174 348.691Z" fill="#263238"/>
<path d="M108.48 352.605H103.779L103.68 352.551C92.1628 346.774 92.4792 345.861 92.6057 345.482C92.8046 344.903 93.6092 345.012 94.4137 345.174C96.7042 345.617 98.9451 346.287 101.103 347.172C97.632 343.457 92.6238 337.725 93.3289 336.324C93.4254 336.147 93.5783 336.007 93.7634 335.927C93.9485 335.846 94.1552 335.83 94.3505 335.881C97.2613 336.207 101.926 342.254 103.797 344.858C103.87 339.904 104.258 329.363 106.319 328.749C106.826 328.595 107.314 328.875 107.784 329.571C110.026 332.934 108.833 339.786 107.901 343.665C114.338 333.847 115.133 334.1 115.504 334.2C115.643 334.245 115.762 334.338 115.84 334.462C115.917 334.586 115.949 334.733 115.929 334.878C115.739 338.245 114.471 341.462 112.313 344.053C116.3 341.287 120.087 339.027 120.91 339.75C121.416 340.193 121 340.953 120.838 341.242C119.337 343.999 115.206 346.603 112.322 348.167C120.991 346.53 121.154 347.055 121.272 347.443C121.434 347.995 120.774 348.302 119.762 348.709C114.049 350.996 108.525 352.596 108.471 352.614L108.48 352.605ZM104.041 351.701H108.353C108.959 351.52 113.931 350.047 119.201 347.977C117.05 348.221 113.036 348.881 109.33 349.667L105.56 350.427L106.111 351.005L103.011 349.071C100.296 347.605 97.3627 346.588 94.3233 346.06L93.9708 345.997C97.1725 348.114 100.509 350.02 103.96 351.701H104.041ZM94.1787 336.749C94.1787 337.906 98.9518 343.619 103.544 348.374L105.479 350.381L109.022 348.808C109.113 348.808 117.909 344.831 120.114 340.781C120.178 340.674 120.233 340.562 120.277 340.446C118.957 340.663 113.56 344.189 109.013 347.561L108.462 346.847C108.525 346.801 114.672 341.757 115.052 335.366C113.723 336.704 110.189 341.784 107.124 346.566L105.316 349.441L106.347 346.187C106.347 346.069 110.026 334.435 107.106 330.05C106.817 329.607 106.663 329.589 106.663 329.589C105.678 329.77 104.81 337.391 104.774 346.241V347.696L103.951 346.494C102.143 343.882 97.0082 337.047 94.3414 336.749H94.1787Z" fill="#263238"/>
<path d="M509.133 372.972C509.133 372.972 491.053 341.857 496.233 339.452C501.412 337.047 512.025 360.696 512.025 360.696C512.025 360.696 509.964 316.093 514.737 320.206C519.511 324.319 524.003 355.896 524.003 355.896C524.003 355.896 533.613 321.544 536.705 328.776C539.796 336.008 534.264 357.821 534.264 357.821C534.264 357.821 548.059 331.56 549.433 340.139C550.807 348.718 542.915 362.784 542.915 362.784C542.915 362.784 561.104 344.596 562.478 351.801C563.852 359.006 557.668 366.219 557.668 366.219C557.668 366.219 581.688 353.175 575.857 360.38C570.026 367.585 561.447 376.86 561.447 376.86C561.447 376.86 584.436 368.615 581.688 373.424C578.939 378.234 568.652 383.368 568.652 383.368C568.652 383.368 587.527 379.933 585.466 383.025C583.405 386.117 578.614 389.145 578.614 389.145H493.15C493.15 389.145 470.496 380.964 479.418 380.277C488.341 379.59 496.594 383.368 496.594 383.368C496.594 383.368 468.805 364.493 481.841 363.119C494.877 361.745 505.517 378.216 505.517 378.216C505.517 378.216 486.985 352.135 493.511 356.257L509.133 372.972Z" fill="#0AA778"/>
<path d="M510.299 381.832C510.299 381.832 486.994 357.686 493.584 358.409C500.174 359.132 512.36 377.194 512.36 377.194C512.36 377.194 512.532 337.418 518.345 346.114C524.157 354.811 517.016 377.357 517.016 377.357C517.016 377.357 533.631 351.43 533.595 355.661C533.477 368.76 520.794 379.002 520.794 379.002C520.794 379.002 547.399 359.295 543.042 367.25C538.685 375.205 521.608 382.844 521.608 382.844C521.608 382.844 552.281 376.652 541.378 381.036C530.476 385.42 520.107 388.395 520.107 388.395H511.664C511.664 388.395 482.736 373.858 493.584 376.037C504.432 378.216 510.299 381.832 510.299 381.832Z" fill="#263238"/>
<path d="M520.189 388.819H511.546L511.447 388.774C501.657 383.856 490.112 377.637 490.718 375.883C490.926 375.278 491.758 375.187 493.674 375.567C498.63 376.514 503.456 378.049 508.048 380.141C502.705 374.491 490.691 361.311 492.038 358.581C492.201 358.237 492.608 357.857 493.566 357.966C499.324 358.599 508.934 371.689 511.854 375.766C511.935 368.335 512.487 345.626 516.374 344.469C517.142 344.234 517.92 344.704 518.697 345.861C523.344 352.849 519.999 368.082 518.272 374.536C523.841 365.948 531.778 354.26 533.504 354.775C533.703 354.838 534.029 355.028 534.02 355.679C533.947 363.815 529.039 370.938 525.278 375.196C531.995 370.423 541.993 363.77 543.638 365.198C544.271 365.749 543.81 366.789 543.412 367.521C540.158 373.479 530.25 379.083 525.052 381.714C543.747 378.098 544.036 379.138 544.19 379.553C544.362 380.132 543.747 380.575 541.586 381.443C530.738 385.764 520.369 388.783 520.27 388.81L520.189 388.819ZM511.754 387.915H520.062C520.966 387.662 530.91 384.724 541.234 380.593C541.766 380.388 542.288 380.155 542.798 379.897C540.167 379.897 530.458 381.524 521.707 383.287L517.675 384.101L521.436 382.428C521.608 382.356 538.359 374.844 542.599 367.06C543.132 366.093 543.015 365.84 543.015 365.84C541.83 365.017 530.675 372.168 521.011 379.4L520.46 378.686C520.586 378.586 532.935 368.461 533.116 355.769C531.308 356.872 523.786 367.621 517.368 377.628L515.56 380.503L516.591 377.248C516.663 377.022 523.606 354.829 517.974 346.395C517.684 345.952 517.115 345.229 516.672 345.364C513.96 346.178 512.875 365.334 512.821 377.221V378.686L512.007 377.474C511.881 377.293 499.812 359.584 493.548 358.888C493.385 358.888 493.005 358.843 492.933 359.006C492.029 360.895 502.75 373.325 510.688 381.542L513.228 384.173L510.118 382.238C510.064 382.238 504.233 378.622 493.557 376.48C492.966 376.33 492.358 376.263 491.749 376.281C492.68 377.764 502.461 383.242 511.754 387.915Z" fill="#263238"/>
<path d="M133.657 344.939C133.657 344.939 135.464 343.267 137.083 343.267C138.701 343.267 143.501 345.59 143.501 345.59C143.501 345.59 145.436 348.573 145.607 348.754C145.779 348.935 148.157 349.947 148.319 350.363C148.482 350.779 148.844 352.171 148.844 352.171H134.09L131.378 345.012L133.657 344.939Z" fill="white"/>
<path d="M149.449 352.605H133.792L130.728 344.56L133.485 344.487C133.955 344.099 135.591 342.815 137.101 342.815C138.737 342.815 143.212 344.948 143.718 345.183L143.827 345.238L143.899 345.346C144.803 346.729 145.824 348.284 145.96 348.447L146.611 348.772C148.075 349.495 148.618 349.821 148.771 350.182C148.925 350.544 149.287 351.891 149.323 352.036L149.449 352.605ZM134.407 351.701H148.256C148.159 351.307 148.042 350.917 147.904 350.535C147.35 350.177 146.774 349.857 146.177 349.577C145.854 349.449 145.55 349.279 145.273 349.071C145.092 348.89 143.908 347.082 143.176 345.943C141.765 345.274 138.249 343.719 137.065 343.719C135.672 343.719 133.955 345.256 133.937 345.274L133.81 345.382L132.002 345.436L134.407 351.701Z" fill="#263238"/>
<path d="M137.082 343.267L136.992 344.677C136.992 344.677 140.771 346.874 140.689 347.669C140.471 348.573 140.168 349.453 139.785 350.3L141.72 352.325H131.459L132.246 346.259C132.246 346.259 134.443 343.095 137.082 343.267Z" fill="#263238"/>
<path d="M114.401 344.062C114.401 344.062 121.787 332.979 123.441 332.808C124.724 332.843 125.981 333.179 127.111 333.79C128.24 334.401 129.209 335.269 129.941 336.324C131.036 338.582 131.92 340.936 132.58 343.357C132.671 343.619 133.023 343.8 135.039 347.046C137.055 350.291 136.974 352.153 136.974 352.153H108.417C108.755 350.557 109.318 349.017 110.089 347.579C110.979 346.452 112.215 345.649 113.605 345.292L114.401 344.062Z" fill="white"/>
<path d="M137.408 352.605H107.847L107.956 352.054C108.307 350.406 108.892 348.818 109.691 347.335C110.594 346.146 111.866 345.291 113.307 344.903L114.012 343.809C115.82 341.17 121.651 332.545 123.396 332.356C124.768 332.384 126.114 332.738 127.323 333.389C128.532 334.039 129.569 334.968 130.348 336.098C131.454 338.297 132.327 340.606 132.951 342.987L133.015 343.213L133.186 343.439C133.476 343.827 134.09 344.641 135.437 346.811C137.507 350.146 137.444 352.09 137.435 352.171L137.408 352.605ZM108.977 351.701H136.504C136.207 350.123 135.591 348.622 134.696 347.29C134.016 346.154 133.28 345.052 132.49 343.99C132.362 343.847 132.261 343.681 132.192 343.502C132.159 343.417 132.131 343.329 132.111 343.24C131.522 340.923 130.676 338.679 129.588 336.55C128.902 335.568 127.997 334.76 126.944 334.188C125.891 333.617 124.72 333.299 123.523 333.26C122.619 333.395 118.343 338.982 114.799 344.306L113.895 345.69L113.714 345.735C112.436 346.06 111.298 346.789 110.469 347.814C109.801 349.036 109.305 350.344 108.995 351.701H108.977Z" fill="#263238"/>
<path d="M125.737 351.972C125.737 351.972 124.951 350.038 124.833 349.776C124.716 349.514 124.743 346.964 124.481 345.907C123.794 344.397 122.971 342.954 122.022 341.594L123.604 337.029L122.808 336.415L124.128 333.16L123.396 332.817C121.66 333.124 114.356 344.062 114.356 344.062L113.56 345.292C112.169 345.649 110.934 346.452 110.044 347.579C109.293 348.958 108.745 350.437 108.417 351.972H125.737Z" fill="#263238"/>
<path d="M418.407 347.696C419.005 347.142 419.754 346.777 420.559 346.648C421.553 346.648 424.581 348.103 424.581 348.103C424.581 348.103 425.793 349.975 425.901 350.083C426.01 350.192 427.501 350.833 427.61 351.096C427.718 351.358 427.944 352.216 427.944 352.216H418.678L416.97 347.696H418.407Z" fill="white"/>
<path d="M428.496 352.669H418.371L416.328 347.299L418.236 347.245C418.883 346.664 419.695 346.298 420.559 346.196C421.626 346.196 424.455 347.543 424.781 347.697L424.889 347.751L424.961 347.859C425.513 348.718 426.146 349.667 426.245 349.785C426.344 349.902 426.408 349.848 426.598 349.947C427.565 350.436 427.908 350.644 428.026 350.915C428.166 351.302 428.284 351.698 428.378 352.099L428.496 352.669ZM418.968 351.765H427.33C427.267 351.548 427.203 351.358 427.167 351.267C427.131 351.177 426.444 350.897 426.164 350.752C425.944 350.668 425.74 350.549 425.558 350.399C425.077 349.783 424.639 349.133 424.247 348.456C423.071 347.85 421.822 347.394 420.532 347.1C419.839 347.215 419.195 347.529 418.679 348.004L418.561 348.112H417.594L418.968 351.765Z" fill="#263238"/>
<path d="M420.559 346.648L420.505 347.552C420.505 347.552 422.873 348.935 422.819 349.432C422.688 350 422.503 350.554 422.268 351.086L423.479 352.352H417.024L417.522 348.546C417.522 348.546 418.905 346.539 420.559 346.648Z" fill="#263238"/>
<path d="M406.33 347.136C406.33 347.136 410.967 340.184 412.016 340.076C412.82 340.101 413.608 340.313 414.316 340.696C415.023 341.079 415.632 341.622 416.093 342.282C416.778 343.698 417.332 345.175 417.747 346.693C417.802 346.856 418.019 346.973 419.293 349.007C419.983 349.943 420.402 351.05 420.505 352.207H402.587C402.797 351.207 403.15 350.241 403.636 349.342C404.194 348.634 404.969 348.13 405.842 347.904L406.33 347.136Z" fill="white"/>
<path d="M420.929 352.668H402.027L402.144 352.117C402.366 351.066 402.738 350.052 403.247 349.107C403.824 348.343 404.633 347.788 405.552 347.525L405.959 346.892C407.767 344.234 410.868 339.75 411.962 339.66C412.855 339.67 413.732 339.896 414.518 340.318C415.305 340.74 415.979 341.345 416.482 342.083C417.19 343.474 417.744 344.938 418.136 346.449V346.576C418.136 346.576 418.136 346.575 418.217 346.675C418.398 346.919 418.787 347.425 419.637 348.799C420.377 349.809 420.821 351.005 420.92 352.253L420.929 352.668ZM403.166 351.764H419.998C419.784 350.869 419.414 350.018 418.905 349.251C418.073 347.922 417.702 347.443 417.53 347.199C417.44 347.094 417.366 346.975 417.313 346.847L417.268 346.684C416.898 345.241 416.371 343.844 415.695 342.517C415.284 341.932 414.744 341.45 414.117 341.106C413.491 340.763 412.793 340.568 412.079 340.537C411.474 340.736 408.825 344.252 406.728 347.389L406.14 348.293L405.968 348.338C405.207 348.527 404.528 348.959 404.034 349.568C403.65 350.257 403.364 350.996 403.184 351.764H403.166Z" fill="#263238"/>
<path d="M413.444 352.108C413.444 352.108 412.947 350.888 412.893 350.725C412.838 350.562 412.839 348.917 412.676 348.302C412.241 347.354 411.724 346.447 411.13 345.59L412.124 342.725L411.627 342.336L412.45 340.302L411.989 340.085C410.904 340.275 406.33 347.136 406.33 347.136L405.842 347.904C404.969 348.13 404.194 348.634 403.636 349.342C403.163 350.206 402.818 351.135 402.614 352.099L413.444 352.108Z" fill="#263238"/>
<path d="M567.911 374.735C567.911 374.735 571.4 371.58 574.393 371.58C577.385 371.58 586.524 375.974 586.524 375.974C586.524 375.974 590.185 381.605 590.511 381.949C590.836 382.293 595.329 384.2 595.664 384.986C595.998 385.773 596.658 388.367 596.658 388.367H568.743L563.59 374.853L567.911 374.735Z" fill="white"/>
<path d="M597.246 388.819H568.435L562.939 374.41L567.712 374.256C568.39 373.668 571.536 371.092 574.366 371.092C577.43 371.092 586.316 375.35 586.696 375.531L586.805 375.585L586.877 375.693C588.26 377.827 590.556 381.307 590.809 381.596C590.918 381.678 591.587 382.012 592.174 382.311C594.66 383.549 595.79 384.2 596.052 384.779C596.396 385.583 597.047 388.114 597.074 388.223L597.246 388.819ZM569.059 387.915H596.08C595.863 387.111 595.474 385.692 595.248 385.203C595.022 384.715 592.843 383.712 591.795 383.188C591.23 382.946 590.693 382.643 590.195 382.284C589.86 381.949 587.157 377.763 586.217 376.344C585.159 375.847 577.078 372.05 574.393 372.05C571.708 372.05 568.245 375.061 568.218 375.088L568.092 375.205L564.241 375.305L569.059 387.915Z" fill="#263238"/>
<path d="M574.393 371.544L574.23 374.202C574.23 374.202 581.372 378.36 581.209 379.852C580.81 381.563 580.253 383.234 579.546 384.842L583.162 388.666H563.726L565.217 377.194C565.217 377.194 569.412 371.255 574.393 371.544Z" fill="#263238"/>
<path d="M531.552 373.081C531.552 373.081 545.519 352.144 548.674 351.81C551.829 351.475 558.473 354.133 560.968 358.454C563.463 362.775 565.786 371.255 565.958 371.752C566.13 372.249 566.79 372.584 570.605 378.731C574.42 384.878 574.266 388.367 574.266 388.367H520.216C520.216 388.367 521.382 382.88 523.38 379.725C525.378 376.57 530.024 375.404 530.024 375.404L531.552 373.081Z" fill="white"/>
<path d="M574.655 388.819H519.665L519.782 388.277C519.782 388.042 520.984 382.672 522.991 379.481C524.863 376.525 528.84 375.269 529.735 375.015L531.145 372.828C532.583 370.667 545.311 351.701 548.593 351.358C551.874 351.014 558.735 353.735 561.321 358.228C562.812 360.805 564.458 365.153 566.221 371.164C566.284 371.399 566.329 371.553 566.347 371.607C566.45 371.802 566.574 371.984 566.718 372.15C567.269 372.882 568.408 374.392 570.958 378.478C574.809 384.679 574.682 388.232 574.682 388.377L574.655 388.819ZM520.786 387.915H573.76C573.66 386.822 573.118 383.685 570.144 378.966C568.852 376.808 567.452 374.718 565.949 372.701C565.74 372.458 565.569 372.183 565.443 371.888L565.308 371.417C563.563 365.478 561.945 361.193 560.498 358.68C558.121 354.558 551.657 351.927 548.638 352.253C546.495 352.479 537.202 365.297 531.851 373.325L530.259 375.802L530.088 375.847C530.088 375.847 525.568 377.004 523.76 379.969C522.404 382.467 521.403 385.141 520.786 387.915Z" fill="#263238"/>
<path d="M552.959 388.033C552.959 388.033 551.458 384.417 551.296 383.884C551.133 383.35 551.133 378.559 550.627 376.57C550.12 374.581 545.98 368.434 545.98 368.434L548.972 359.792L547.472 358.626L549.967 352.479L548.575 351.837C545.302 352.424 531.516 373.09 531.516 373.09L530.024 375.413C530.024 375.413 525.369 376.579 523.38 379.734C521.671 382.446 520.578 386.822 520.297 388.042L552.959 388.033Z" fill="#263238"/>
</svg>
