<svg width="602" height="359" viewBox="0 0 602 359" fill="none" xmlns="http://www.w3.org/2000/svg">
<path opacity="0.8" d="M598.579 137.206C591.455 111.551 543.968 139.457 543.968 139.457L556.398 116.912C557.901 114.645 559.217 112.26 560.33 109.779C566.577 95.8213 566.496 80.8511 560.33 67.8877C558.64 59.9958 553.442 48.7139 539.222 36.32C512.31 12.9516 422.082 -3.04919 395.92 0.503531C369.758 4.05625 419.668 15.0489 419.668 15.0489H415.718C339.646 6.98521 263.104 5.94561 187.159 7.51857C168.112 7.90729 149.01 8.54009 130.361 11.7493C125 12.6533 119.233 14.0906 116.032 18.4208C101.894 37.6127 159.886 39.484 169.016 39.1134C129.177 44.2933 84.9439 45.8843 47.8799 61.2794C42.7181 63.4219 37.5924 65.9712 33.6962 69.9398C29.7999 73.9083 28.2722 79.486 28.1456 85.2264C27.784 100.386 52.1558 106.018 66.213 110.204C66.213 110.204 -7.66184 159.327 1.04368 184.26C4.99779 196.101 11.4434 206.958 19.9463 216.098C14.2902 223.037 9.40971 230.573 5.39192 238.572C3.03248 243.399 -0.0320777 250.008 2.58048 255.567C16.032 283.88 220.092 381.097 383.607 353.344C427.045 345.976 470.31 333.79 508.359 312.239C546.255 290.787 584.874 255.35 594.42 210.674C594.737 209.201 594.963 207.773 595.125 206.38C601.128 185.796 604.545 158.667 598.579 137.206Z" fill="white"/>
</svg>
