<svg width="18" height="20" viewBox="0 0 18 20" fill="none" xmlns="http://www.w3.org/2000/svg">
<path d="M17 12.27V8C17 3.58 13.42 0 9 0C4.58 0 1 3.58 1 8V12.27C0.4 12.61 0 13.26 0 14V18C0 19.1 0.9 20 2 20H16C17.1 20 18 19.1 18 18V14C18 13.26 17.6 12.61 17 12.27ZM4 18H2V14H4V18ZM8 18H6V14H8V18ZM8 12H3V8C3 5.03 5.16 2.56 8 2.08V12ZM10 2.08C11.3988 2.31643 12.6685 3.04082 13.5838 4.12459C14.4992 5.20836 15.0009 6.5814 15 8V12H10V2.08ZM12 18H10V14H12V18ZM16 18H14V14H16V18ZM5 9C5 8.45 5.45 8 6 8C6.55 8 7 8.45 7 9C7 9.55 6.55 10 6 10C5.45 10 5 9.55 5 9ZM13 9C13 9.55 12.55 10 12 10C11.45 10 11 9.55 11 9C11 8.45 11.45 8 12 8C12.55 8 13 8.45 13 9Z" fill="#2DC954"/>
</svg>
