<svg width="16" height="17" viewBox="0 0 16 17" fill="none" xmlns="http://www.w3.org/2000/svg">
<path d="M5.49533 5.39333L1.242 6.01L1.16667 6.02533C1.05263 6.05561 0.948663 6.11561 0.865395 6.1992C0.782126 6.2828 0.722536 6.38699 0.692708 6.50115C0.662881 6.61531 0.663885 6.73534 0.695618 6.84898C0.727352 6.96263 0.788678 7.06581 0.873333 7.148L3.95467 10.1473L3.228 14.384L3.21933 14.4573C3.21235 14.5753 3.23684 14.693 3.2903 14.7983C3.34376 14.9037 3.42426 14.993 3.52356 15.057C3.62286 15.121 3.73739 15.1575 3.85543 15.1627C3.97347 15.168 4.09078 15.1417 4.19533 15.0867L7.99933 13.0867L11.7947 15.0867L11.8613 15.1173C11.9714 15.1607 12.091 15.174 12.2078 15.1558C12.3247 15.1377 12.4347 15.0888 12.5264 15.0142C12.6181 14.9395 12.6884 14.8418 12.7299 14.7311C12.7714 14.6204 12.7827 14.5006 12.7627 14.384L12.0353 10.1473L15.118 7.14733L15.17 7.09067C15.2443 6.99918 15.293 6.88964 15.3111 6.7732C15.3293 6.65676 15.3163 6.53759 15.2734 6.42782C15.2305 6.31806 15.1593 6.22162 15.067 6.14834C14.9747 6.07506 14.8646 6.02756 14.748 6.01067L10.4947 5.39333L8.59333 1.54C8.53832 1.42836 8.45315 1.33434 8.34746 1.2686C8.24178 1.20286 8.1198 1.16802 7.99533 1.16802C7.87087 1.16802 7.74889 1.20286 7.64321 1.2686C7.53752 1.33434 7.45235 1.42836 7.39733 1.54L5.49533 5.39333Z" fill="#495057"/>
</svg>
