<svg width="16" height="16" viewBox="0 0 16 16" fill="none" xmlns="http://www.w3.org/2000/svg">
<path d="M2.66666 3.33335C2.66666 3.51016 2.73689 3.67973 2.86192 3.80476C2.98694 3.92978 3.15651 4.00002 3.33332 4.00002C3.51013 4.00002 3.6797 3.92978 3.80473 3.80476C3.92975 3.67973 3.99999 3.51016 3.99999 3.33335C3.99999 3.15654 3.92975 2.98697 3.80473 2.86195C3.6797 2.73693 3.51013 2.66669 3.33332 2.66669C3.15651 2.66669 2.98694 2.73693 2.86192 2.86195C2.73689 2.98697 2.66666 3.15654 2.66666 3.33335ZM7.33332 3.33335C7.33332 3.51016 7.40356 3.67973 7.52859 3.80476C7.65361 3.92978 7.82318 4.00002 7.99999 4.00002C8.1768 4.00002 8.34637 3.92978 8.47139 3.80476C8.59642 3.67973 8.66666 3.51016 8.66666 3.33335C8.66666 3.15654 8.59642 2.98697 8.47139 2.86195C8.34637 2.73693 8.1768 2.66669 7.99999 2.66669C7.82318 2.66669 7.65361 2.73693 7.52859 2.86195C7.40356 2.98697 7.33332 3.15654 7.33332 3.33335ZM12 3.33335C12 3.51016 12.0702 3.67973 12.1953 3.80476C12.3203 3.92978 12.4898 4.00002 12.6667 4.00002C12.8435 4.00002 13.013 3.92978 13.1381 3.80476C13.2631 3.67973 13.3333 3.51016 13.3333 3.33335C13.3333 3.15654 13.2631 2.98697 13.1381 2.86195C13.013 2.73693 12.8435 2.66669 12.6667 2.66669C12.4898 2.66669 12.3203 2.73693 12.1953 2.86195C12.0702 2.98697 12 3.15654 12 3.33335ZM2.66666 8.00002C2.66666 8.17683 2.73689 8.3464 2.86192 8.47142C2.98694 8.59645 3.15651 8.66669 3.33332 8.66669C3.51013 8.66669 3.6797 8.59645 3.80473 8.47142C3.92975 8.3464 3.99999 8.17683 3.99999 8.00002C3.99999 7.82321 3.92975 7.65364 3.80473 7.52862C3.6797 7.40359 3.51013 7.33335 3.33332 7.33335C3.15651 7.33335 2.98694 7.40359 2.86192 7.52862C2.73689 7.65364 2.66666 7.82321 2.66666 8.00002ZM7.33332 8.00002C7.33332 8.17683 7.40356 8.3464 7.52859 8.47142C7.65361 8.59645 7.82318 8.66669 7.99999 8.66669C8.1768 8.66669 8.34637 8.59645 8.47139 8.47142C8.59642 8.3464 8.66666 8.17683 8.66666 8.00002C8.66666 7.82321 8.59642 7.65364 8.47139 7.52862C8.34637 7.40359 8.1768 7.33335 7.99999 7.33335C7.82318 7.33335 7.65361 7.40359 7.52859 7.52862C7.40356 7.65364 7.33332 7.82321 7.33332 8.00002ZM12 8.00002C12 8.17683 12.0702 8.3464 12.1953 8.47142C12.3203 8.59645 12.4898 8.66669 12.6667 8.66669C12.8435 8.66669 13.013 8.59645 13.1381 8.47142C13.2631 8.3464 13.3333 8.17683 13.3333 8.00002C13.3333 7.82321 13.2631 7.65364 13.1381 7.52862C13.013 7.40359 12.8435 7.33335 12.6667 7.33335C12.4898 7.33335 12.3203 7.40359 12.1953 7.52862C12.0702 7.65364 12 7.82321 12 8.00002ZM2.66666 12.6667C2.66666 12.8435 2.73689 13.0131 2.86192 13.1381C2.98694 13.2631 3.15651 13.3334 3.33332 13.3334C3.51013 13.3334 3.6797 13.2631 3.80473 13.1381C3.92975 13.0131 3.99999 12.8435 3.99999 12.6667C3.99999 12.4899 3.92975 12.3203 3.80473 12.1953C3.6797 12.0703 3.51013 12 3.33332 12C3.15651 12 2.98694 12.0703 2.86192 12.1953C2.73689 12.3203 2.66666 12.4899 2.66666 12.6667ZM7.33332 12.6667C7.33332 12.8435 7.40356 13.0131 7.52859 13.1381C7.65361 13.2631 7.82318 13.3334 7.99999 13.3334C8.1768 13.3334 8.34637 13.2631 8.47139 13.1381C8.59642 13.0131 8.66666 12.8435 8.66666 12.6667C8.66666 12.4899 8.59642 12.3203 8.47139 12.1953C8.34637 12.0703 8.1768 12 7.99999 12C7.82318 12 7.65361 12.0703 7.52859 12.1953C7.40356 12.3203 7.33332 12.4899 7.33332 12.6667ZM12 12.6667C12 12.8435 12.0702 13.0131 12.1953 13.1381C12.3203 13.2631 12.4898 13.3334 12.6667 13.3334C12.8435 13.3334 13.013 13.2631 13.1381 13.1381C13.2631 13.0131 13.3333 12.8435 13.3333 12.6667C13.3333 12.4899 13.2631 12.3203 13.1381 12.1953C13.013 12.0703 12.8435 12 12.6667 12C12.4898 12 12.3203 12.0703 12.1953 12.1953C12.0702 12.3203 12 12.4899 12 12.6667Z" stroke="white" stroke-width="1.5" stroke-linecap="round" stroke-linejoin="round"/>
</svg>
