<svg width="330" height="330" viewBox="0 0 330 330" fill="none" xmlns="http://www.w3.org/2000/svg">
<path d="M165 282.19C235.675 282.19 292.968 278.845 292.968 274.718C292.968 270.592 235.675 267.247 165 267.247C94.3257 267.247 37.0327 270.592 37.0327 274.718C37.0327 278.845 94.3257 282.19 165 282.19Z" fill="#F5F5F5"/>
<path d="M264.766 71.0952L247.177 53.5062H233.475L248.682 68.7126H244.497V88.2156H260.581V71.0952H264.766Z" fill="#1098F7"/>
<path opacity="0.4" d="M264.766 71.0952L247.177 53.5062H233.475L248.682 68.7126H244.497V88.2156H260.581V71.0952H264.766Z" fill="white"/>
<path d="M251.064 71.0952L233.475 53.5062L215.886 71.0952H222.453V88.2156H244.497V71.0952H251.064Z" fill="#1098F7"/>
<path opacity="0.7" d="M251.064 71.0952L233.475 53.5062L215.886 71.0952H222.453V88.2156H244.497V71.0952H251.064Z" fill="white"/>
<path d="M276.091 141.306L258.502 123.71H244.801L260.007 138.917H255.823V158.42H271.907V141.306H276.091Z" fill="#1098F7"/>
<path opacity="0.4" d="M276.091 141.306L258.502 123.71H244.801L260.007 138.917H255.823V158.42H271.907V141.306H276.091Z" fill="white"/>
<path d="M262.39 141.306L244.801 123.71L227.212 141.306H233.772V158.42H255.823V141.306H262.39Z" fill="#1098F7"/>
<path opacity="0.7" d="M262.39 141.306L244.801 123.71L227.212 141.306H233.772V158.42H255.823V141.306H262.39Z" fill="white"/>
<path d="M196.931 159.595L179.335 142.006H165.64L180.847 157.205H176.662V176.715H192.747V159.595H196.931Z" fill="#1098F7"/>
<path opacity="0.4" d="M196.931 159.595L179.335 142.006H165.64L180.847 157.205H176.662V176.715H192.747V159.595H196.931Z" fill="white"/>
<path d="M183.229 159.595L165.64 142.006L148.051 159.595H154.612V176.708H176.662V159.595H183.229Z" fill="#1098F7"/>
<path opacity="0.7" d="M183.229 159.595L165.64 142.006L148.051 159.595H154.612V176.708H176.662V159.595H183.229Z" fill="white"/>
<path d="M195.881 100.492H186.417L185.064 99.1452L174.075 78.6852L195.881 100.492Z" fill="#2F54C6"/>
<path d="M186.384 120.364H206.323V96.1819H186.384V120.364Z" fill="#1098F7"/>
<path opacity="0.3" d="M186.384 120.364H206.323V96.1819H186.384V120.364Z" fill="black"/>
<path d="M194.529 99.1453H211.517L189.704 77.3323H172.722L194.529 99.1453Z" fill="#1098F7"/>
<path opacity="0.3" d="M194.529 99.1453H211.517L189.704 77.3323H172.722L194.529 99.1453Z" fill="black"/>
<path d="M186.384 93.027V120.364H159.053V93.027L172.722 79.7544L172.861 79.893L174.075 81.0678L186.384 93.027Z" fill="#1098F7"/>
<path opacity="0.3" d="M174.075 78.6852V88.1496L161.726 100.492H159.053V93.7068L172.861 79.893L174.075 78.6852Z" fill="black"/>
<path d="M194.529 99.1453H185.064L172.722 86.7967V77.3323L194.529 99.1453Z" fill="#1098F7"/>
<path d="M150.909 99.1453H160.373L172.722 86.7967V77.3323L150.909 99.1453Z" fill="#1098F7"/>
<path d="M147.84 126.971C142.21 131.538 136.402 135.835 130.561 140.059C124.72 144.283 118.8 148.388 112.86 152.46C106.92 156.532 100.881 160.453 94.8157 164.34C91.7995 166.32 88.7371 168.194 85.6945 170.122C84.1937 171.156 82.5355 171.94 80.7841 172.445C79.8346 172.701 78.8616 172.86 77.8801 172.92C76.7771 173.011 75.6668 172.951 74.5801 172.742C73.7292 172.569 72.9209 172.229 72.2014 171.743C71.482 171.257 70.8654 170.634 70.3872 169.909C69.909 169.185 69.5785 168.373 69.4146 167.52C69.2507 166.668 69.2566 165.791 69.4321 164.941C69.4321 164.842 69.4783 164.716 69.5047 164.611C69.8008 163.542 70.2451 162.52 70.8247 161.575C71.3123 160.733 71.8851 159.943 72.5341 159.218C73.7566 157.866 75.1897 156.721 76.7779 155.826C79.8469 153.938 82.8895 152.018 85.9717 150.17C92.1163 146.414 98.3203 142.765 104.557 139.161C110.794 135.557 117.097 132.066 123.453 128.66C129.809 125.255 136.217 121.935 142.791 118.873C143.852 118.413 145.042 118.349 146.146 118.693C147.249 119.037 148.193 119.765 148.805 120.746C149.416 121.727 149.655 122.895 149.478 124.038C149.301 125.18 148.72 126.221 147.84 126.971Z" fill="#1098F7"/>
<path d="M147.84 126.971C142.21 131.538 136.402 135.835 130.561 140.059C124.72 144.283 118.8 148.388 112.86 152.46C106.92 156.532 100.881 160.453 94.8157 164.34C91.7995 166.32 88.7371 168.194 85.6945 170.122C84.1937 171.156 82.5355 171.94 80.7841 172.445C79.8346 172.701 78.8616 172.86 77.8801 172.92C76.7771 173.011 75.6668 172.951 74.5801 172.742C73.7292 172.569 72.9209 172.229 72.2014 171.743C71.482 171.257 70.8654 170.634 70.3872 169.909C69.909 169.185 69.5785 168.373 69.4146 167.52C69.2507 166.668 69.2566 165.791 69.4321 164.941C69.4321 164.842 69.4783 164.716 69.5047 164.611C69.8008 163.542 70.2451 162.52 70.8247 161.575C71.3123 160.733 71.8851 159.943 72.5341 159.218C73.7566 157.866 75.1897 156.721 76.7779 155.826C79.8469 153.938 82.8895 152.018 85.9717 150.17C92.1163 146.414 98.3203 142.765 104.557 139.161C110.794 135.557 117.097 132.066 123.453 128.66C129.809 125.255 136.217 121.935 142.791 118.873C143.852 118.413 145.042 118.349 146.146 118.693C147.249 119.037 148.193 119.765 148.805 120.746C149.416 121.727 149.655 122.895 149.478 124.038C149.301 125.18 148.72 126.221 147.84 126.971Z" fill="#1098F7"/>
<path opacity="0.5" d="M147.84 126.971C142.21 131.538 136.402 135.835 130.561 140.059C124.72 144.283 118.8 148.388 112.86 152.46C106.92 156.532 100.881 160.453 94.8157 164.34C91.7995 166.32 88.7371 168.194 85.6945 170.122C84.1937 171.156 82.5355 171.94 80.7841 172.445C79.8346 172.701 78.8616 172.86 77.8801 172.92C76.7771 173.011 75.6668 172.951 74.5801 172.742C73.7292 172.569 72.9209 172.229 72.2014 171.743C71.482 171.257 70.8654 170.634 70.3872 169.909C69.909 169.185 69.5785 168.373 69.4146 167.52C69.2507 166.668 69.2566 165.791 69.4321 164.941C69.4321 164.842 69.4783 164.716 69.5047 164.611C69.8008 163.542 70.2451 162.52 70.8247 161.575C71.3123 160.733 71.8851 159.943 72.5341 159.218C73.7566 157.866 75.1897 156.721 76.7779 155.826C79.8469 153.938 82.8895 152.018 85.9717 150.17C92.1163 146.414 98.3203 142.765 104.557 139.161C110.794 135.557 117.097 132.066 123.453 128.66C129.809 125.255 136.217 121.935 142.791 118.873C143.852 118.413 145.042 118.349 146.146 118.693C147.249 119.037 148.193 119.765 148.805 120.746C149.416 121.727 149.655 122.895 149.478 124.038C149.301 125.18 148.72 126.221 147.84 126.971Z" fill="white"/>
<path d="M123.486 269.036L128.872 267.788L126.35 255.229L120.965 256.476L123.486 269.036Z" fill="#EBB376"/>
<path d="M87.1729 118.952C86.4271 121.592 85.7077 124.37 85.0213 127.09C84.3349 129.809 83.7013 132.568 83.1733 135.313C82.8829 136.679 82.6321 138.079 82.4143 139.366C82.1965 140.653 82.0711 142.006 81.9919 143.359C81.9226 144.704 81.9226 146.052 81.9919 147.398C81.9919 148.058 82.0777 148.718 82.1437 149.417C82.2097 150.117 82.3285 150.784 82.4209 151.358L79.7809 152.354C79.4345 151.645 79.1368 150.913 78.8899 150.163C78.6317 149.443 78.4114 148.709 78.2299 147.965C77.8687 146.482 77.6216 144.973 77.4907 143.451C77.3685 141.914 77.3465 140.371 77.4247 138.831C77.5303 137.273 77.7151 135.841 77.9197 134.389C78.3355 131.492 78.8701 128.621 79.5037 125.809C80.1373 122.998 80.8237 120.166 81.7147 117.322L87.1729 118.952Z" fill="#EBB376"/>
<path d="M79.4045 119.863L84.9551 124.285L88.2881 126.925C88.2881 126.925 88.6379 125.994 89.0603 124.661C89.8655 122.087 90.9149 118.008 90.1889 116.134C89.0471 113.164 86.8889 110.484 84.1565 111.078C81.8399 111.599 79.4045 119.863 79.4045 119.863Z" fill="#263238"/>
<path d="M87.0738 269.075H92.598L92.169 256.271H86.6382L87.0738 269.075Z" fill="#EBB376"/>
<path d="M126.35 255.235L127.703 261.961L122.265 262.951L120.958 256.483L126.35 255.235Z" fill="#DA9D62"/>
<path d="M86.6382 256.271H92.169L92.3868 262.871H86.856L86.6382 256.271Z" fill="#DA9D62"/>
<path d="M104.656 144.619C104.656 144.619 101.449 182.563 98.1221 203.947C95.4359 221.219 93.3107 261.598 93.3107 261.598H85.7999C85.7999 261.598 82.2095 222.605 83.5757 205.498C87.0275 162.274 80.9357 154.618 88.1627 144.599L104.656 144.619Z" fill="#1098F7"/>
<path opacity="0.6" d="M104.656 144.619C104.656 144.619 101.449 182.563 98.1221 203.947C95.4359 221.219 93.3107 261.598 93.3107 261.598H85.7999C85.7999 261.598 82.2095 222.605 83.5757 205.498C87.0275 162.274 80.9357 154.618 88.1627 144.599L104.656 144.619Z" fill="black"/>
<path d="M80.1439 151.925L76.8835 154.143L77.3455 156.037C77.3455 156.037 84.1369 152.513 82.3219 151.1L80.1439 151.925Z" fill="#EBB376"/>
<path d="M94.9279 269.399C94.4359 269.386 93.9468 269.32 93.4693 269.201C93.445 269.193 93.4231 269.18 93.4057 269.161C93.3883 269.143 93.3761 269.12 93.3703 269.095C93.3663 269.07 93.3697 269.044 93.3803 269.02C93.3908 268.997 93.408 268.977 93.4297 268.963C93.6211 268.838 95.2909 267.755 95.9377 268.046C96.011 268.078 96.0743 268.129 96.1208 268.194C96.1673 268.259 96.1952 268.336 96.2017 268.415C96.2275 268.54 96.221 268.669 96.1829 268.79C96.1447 268.912 96.0762 269.021 95.9839 269.108C95.6781 269.329 95.3033 269.432 94.9279 269.399ZM93.8389 269.009C94.8025 269.207 95.5285 269.168 95.8189 268.917C95.8795 268.857 95.924 268.782 95.9482 268.701C95.9724 268.619 95.9756 268.532 95.9575 268.448C95.9551 268.413 95.9434 268.38 95.9237 268.351C95.904 268.322 95.8769 268.299 95.8453 268.283C95.4955 268.132 94.5253 268.62 93.8389 269.009Z" fill="#1098F7"/>
<path d="M93.5024 269.201C93.4809 269.208 93.4578 269.208 93.4364 269.201C93.417 269.189 93.4009 269.173 93.3894 269.153C93.3779 269.133 93.3713 269.111 93.3704 269.089C93.3704 269.016 93.3704 267.425 93.9776 266.891C94.0508 266.822 94.1388 266.771 94.2349 266.741C94.331 266.711 94.4326 266.704 94.532 266.719C94.6361 266.72 94.7367 266.757 94.8172 266.823C94.8976 266.889 94.953 266.98 94.9742 267.082C95.0996 267.742 94.0898 268.904 93.5684 269.201C93.5468 269.207 93.5239 269.207 93.5024 269.201ZM94.4396 266.963C94.3327 266.966 94.2301 267.006 94.1492 267.076C93.8029 267.59 93.6253 268.199 93.641 268.818C94.1624 268.396 94.796 267.498 94.7168 267.122C94.7168 267.062 94.6706 266.983 94.499 266.963H94.4396Z" fill="#1098F7"/>
<path d="M129.36 266.957C129.335 266.955 129.312 266.948 129.291 266.934C129.271 266.92 129.254 266.901 129.243 266.879C129.233 266.857 129.228 266.832 129.23 266.808C129.232 266.783 129.24 266.759 129.255 266.739C129.433 266.528 130.971 264.719 131.756 264.719H131.809C131.88 264.724 131.949 264.749 132.008 264.789C132.068 264.83 132.115 264.885 132.145 264.95C132.199 265.052 132.226 265.166 132.226 265.28C132.226 265.395 132.199 265.509 132.145 265.61C131.802 266.336 130.251 266.746 129.354 266.93L129.36 266.957ZM131.749 264.977C131.32 264.977 130.37 265.874 129.717 266.607C130.924 266.323 131.743 265.947 131.934 265.518C131.973 265.451 131.993 265.375 131.993 265.297C131.993 265.219 131.973 265.143 131.934 265.076C131.923 265.049 131.905 265.026 131.881 265.009C131.858 264.991 131.831 264.98 131.802 264.977H131.749Z" fill="#1098F7"/>
<path d="M129.36 266.957C129.338 266.953 129.317 266.943 129.301 266.928C129.284 266.913 129.273 266.893 129.268 266.871C129.268 266.812 128.792 265.386 129.215 264.587C129.273 264.471 129.354 264.367 129.454 264.283C129.554 264.199 129.67 264.136 129.796 264.099C130.145 263.993 130.317 264.099 130.39 264.251C130.726 264.792 129.98 266.389 129.485 266.891C129.472 266.912 129.454 266.929 129.432 266.941C129.41 266.953 129.385 266.958 129.36 266.957ZM130.02 264.317C129.97 264.309 129.918 264.309 129.868 264.317C129.776 264.343 129.69 264.389 129.616 264.45C129.542 264.511 129.482 264.587 129.439 264.673C129.248 265.274 129.248 265.92 129.439 266.521C129.908 265.861 130.363 264.68 130.165 264.356C130.143 264.33 130.113 264.312 130.08 264.304C130.046 264.297 130.011 264.302 129.98 264.317H130.02Z" fill="#1098F7"/>
<path d="M93.984 97.7263C94.644 101.026 95.964 107.626 93.687 109.837C93.687 109.837 94.5846 113.137 100.683 113.137C107.382 113.137 103.884 109.837 103.884 109.837C100.228 108.966 100.32 106.254 100.96 103.699L93.984 97.7263Z" fill="#EBB376"/>
<path d="M107.303 90.6906C107.249 90.6916 107.196 90.6754 107.151 90.6444C107.123 90.6241 107.099 90.5984 107.081 90.5688C107.062 90.5392 107.05 90.5063 107.045 90.472C107.039 90.4376 107.04 90.4025 107.048 90.3687C107.057 90.3349 107.071 90.303 107.092 90.2748C107.33 89.9357 107.645 89.6574 108.01 89.4624C108.376 89.2675 108.783 89.1615 109.197 89.1528C109.259 89.1627 109.316 89.1944 109.356 89.2422C109.397 89.29 109.42 89.3507 109.42 89.4135C109.42 89.4763 109.397 89.5371 109.356 89.5849C109.316 89.6327 109.259 89.6643 109.197 89.6742C108.868 89.6833 108.545 89.7706 108.256 89.929C107.966 90.0873 107.719 90.3122 107.534 90.585C107.508 90.6211 107.473 90.6498 107.432 90.6683C107.392 90.6868 107.347 90.6945 107.303 90.6906Z" fill="#263238"/>
<path d="M108.768 93.8389C109.124 94.8728 109.621 95.8523 110.246 96.7495C110.012 96.9017 109.747 97.0012 109.47 97.041C109.193 97.0809 108.911 97.0603 108.643 96.9805L108.768 93.8389Z" fill="#DE5753"/>
<path d="M108.398 93.06C108.398 93.5088 108.603 93.8784 108.893 93.885C109.184 93.8916 109.435 93.5484 109.454 93.0996C109.474 92.6508 109.25 92.2878 108.959 92.2746C108.669 92.2614 108.418 92.6178 108.398 93.06Z" fill="#263238"/>
<path d="M108.827 92.2945L109.91 92.0305C109.91 92.0305 109.329 92.8423 108.827 92.2945Z" fill="#263238"/>
<path d="M93.06 268.435H86.8494C86.7419 268.431 86.6369 268.468 86.555 268.537C86.4731 268.607 86.4203 268.705 86.4072 268.811L85.701 273.722C85.6859 273.846 85.6976 273.972 85.7353 274.092C85.773 274.211 85.8359 274.321 85.9197 274.415C86.0035 274.508 86.1062 274.582 86.221 274.632C86.3359 274.682 86.4601 274.707 86.5854 274.705C88.7502 274.672 89.793 274.54 92.5254 274.54C94.2084 274.54 96.657 274.718 98.9802 274.718C101.303 274.718 101.422 272.422 100.459 272.217C96.129 271.28 95.4426 269.999 93.984 268.772C93.7242 268.556 93.3976 268.437 93.06 268.435Z" fill="#263238"/>
<path d="M128.766 266.37L123.031 268.752C122.931 268.791 122.85 268.864 122.801 268.959C122.752 269.054 122.74 269.164 122.767 269.267L123.994 274.078C124.029 274.198 124.089 274.31 124.17 274.405C124.251 274.5 124.351 274.577 124.464 274.631C124.577 274.684 124.7 274.713 124.825 274.716C124.95 274.719 125.074 274.695 125.189 274.646C127.169 273.781 128.093 273.267 130.614 272.217C132.165 271.557 135.445 270.402 137.59 269.511C139.735 268.62 138.963 266.455 137.993 266.634C133.637 267.439 131.565 266.904 129.75 266.33C129.427 266.227 129.079 266.241 128.766 266.37Z" fill="#263238"/>
<path d="M116.279 116.681C117.355 119.216 118.516 121.81 119.691 124.331C120.285 125.598 120.903 126.843 121.546 128.066C122.206 129.294 122.866 130.495 123.526 131.644C123.875 132.211 124.225 132.779 124.588 133.3L125.129 134.053C125.24 134.21 125.366 134.356 125.506 134.488C126.225 135.114 127.123 135.497 128.073 135.584C130.324 135.907 133.148 135.452 135.676 134.772L136.851 137.313C136.183 137.714 135.491 138.073 134.779 138.389C134.077 138.715 133.357 138.997 132.62 139.234C131.068 139.762 129.442 140.04 127.802 140.059C126.888 140.067 125.977 139.947 125.096 139.702C124.119 139.433 123.199 138.986 122.384 138.382C121.966 138.065 121.58 137.709 121.229 137.32C120.932 136.983 120.714 136.699 120.45 136.382C119.955 135.762 119.513 135.135 119.071 134.508C117.426 132.033 115.944 129.454 114.635 126.786C113.315 124.146 112.127 121.506 111.032 118.774L116.279 116.681Z" fill="#EBB376"/>
<path d="M135.109 137.623L141.141 136.673L139.537 133.254C139.537 133.254 134.864 134.066 133.967 136.178L135.109 137.623Z" fill="#EBB376"/>
<path d="M141.135 134.006L140.475 132.548L139.537 133.254L141.135 136.673V134.006Z" fill="#EBB376"/>
<path d="M93.4825 90.9414C93.6013 96.426 93.5353 98.7492 96.1885 101.666C100.149 106.055 106.894 104.709 108.412 99.297C109.778 94.4262 109.349 86.2752 104.082 83.886C102.922 83.3543 101.646 83.1278 100.374 83.2281C99.1026 83.3284 97.8775 83.7521 96.8156 84.459C95.7536 85.1659 94.8899 86.1325 94.3066 87.267C93.7232 88.4016 93.4396 89.6664 93.4825 90.9414Z" fill="#EBB376"/>
<path d="M89.0605 81.0349C94.6969 76.9495 100.993 79.2661 104.439 82.0909C108.042 85.0477 107.468 90.7303 105.264 93.0799C105.492 93.4274 105.644 93.8199 105.707 94.231C105.771 94.6421 105.746 95.062 105.633 95.4625C105.911 97.2208 105.525 99.0197 104.548 100.508C103.572 101.997 102.077 103.069 100.353 103.514L100.043 103.594C93.0007 105.27 84.8629 100.505 83.6353 93.3769C82.8895 89.0275 84.0775 84.6385 89.0605 81.0349Z" fill="#263238"/>
<path d="M104.003 93.4825C104.093 94.5165 104.536 95.4881 105.257 96.2347C106.234 97.2445 107.237 96.6637 107.415 95.4691C107.567 94.3933 107.244 92.5717 106.056 91.9975C104.868 91.4233 103.917 92.2615 104.003 93.4825Z" fill="#EBB376"/>
<path opacity="0.3" d="M97.0201 162.36C96.3931 173.699 99.1255 182.259 100.373 187.268C101.257 179.863 102.069 172.135 102.749 165.317C100.419 157.595 97.4755 153.826 97.0201 162.36Z" fill="black"/>
<path d="M94.347 261.743H84.744L84.2358 258.377L94.3998 258.034L94.347 261.743Z" fill="#1098F7"/>
<path opacity="0.3" d="M84.9553 124.285L88.2883 126.925C88.2883 126.925 88.6381 125.994 89.0605 124.661L87.0805 114.86L84.9553 124.285Z" fill="black"/>
<path d="M92.2021 81.9522C93.9247 80.0448 99.7789 77.1342 104.802 79.4178C106.234 80.0704 107.448 81.1223 108.298 82.4474C109.148 83.7726 109.598 85.3147 109.593 86.889L105.066 89.925L92.2021 81.9522Z" fill="#263238"/>
<path d="M87.5821 86.9616C90.0703 84.9222 92.8621 77.5302 87.5821 80.1042C82.3021 82.6782 80.6983 92.6046 87.5821 86.9616Z" fill="#1098F7"/>
<path d="M88.143 82.2229C89.2188 79.0813 82.1238 72.8311 77.3388 78.7711C72.5538 84.7111 85.0476 91.2649 88.143 82.2229Z" fill="#263238"/>
<path d="M99.2443 86.6052C95.1193 84.8496 93.0667 78.1968 100.148 78.3882C107.23 78.5796 107.026 89.925 99.2443 86.6052Z" fill="#1098F7"/>
<path d="M97.9111 83.1601C95.4097 80.0383 98.1751 72.0127 105.349 74.5801C112.524 77.1475 103.653 90.2947 97.9111 83.1601Z" fill="#263238"/>
<path d="M110.59 144.619C110.59 144.619 116.82 187.189 119.011 203.94C121.288 221.331 127.941 260.324 127.941 260.324L120.549 261.452C120.549 261.452 108.867 224.261 105.613 207.332C102.062 188.885 95.0532 144.632 95.0532 144.632L110.59 144.619Z" fill="#1098F7"/>
<path opacity="0.6" d="M110.59 144.619C110.59 144.619 116.82 187.189 119.011 203.94C121.288 221.331 127.941 260.324 127.941 260.324L120.549 261.452C120.549 261.452 108.867 224.261 105.613 207.332C102.062 188.885 95.0532 144.632 95.0532 144.632L110.59 144.619Z" fill="black"/>
<path d="M113.23 111.256C115.975 111.916 119.361 119.467 119.361 119.467L112.821 127.849C112.821 127.849 106.062 118.285 106.966 115.368C107.904 112.325 109.897 110.445 113.23 111.256Z" fill="#263238"/>
<path d="M104.28 110.913C105.184 111.045 104.346 108.979 103.97 108.761C103.105 108.247 92.0898 107.21 92.2152 108.372C92.2818 109.065 92.5793 109.716 93.06 110.22C93.555 110.55 96.36 109.639 104.28 110.913Z" fill="#1098F7"/>
<path opacity="0.6" d="M104.28 110.913C105.184 111.045 104.346 108.979 103.97 108.761C103.105 108.247 92.0898 107.21 92.2152 108.372C92.2818 109.065 92.5793 109.716 93.06 110.22C93.555 110.55 96.36 109.639 104.28 110.913Z" fill="white"/>
<path d="M113.23 111.256C113.23 111.256 115.87 112.18 110.59 144.619H88.1497C88.5259 135.485 88.5391 129.848 84.1897 111.091C87.3319 110.443 90.5171 110.024 93.7201 109.837C97.1147 109.593 100.522 109.593 103.917 109.837C108.24 110.22 113.23 111.256 113.23 111.256Z" fill="#263238"/>
<path d="M87.78 143.306L86.7702 145.286C86.691 145.444 86.8758 145.603 87.1332 145.603H110.682C110.88 145.603 111.052 145.504 111.065 145.372L111.263 143.392C111.263 143.253 111.104 143.134 110.88 143.134H88.1628C88.0894 143.124 88.0145 143.135 87.9468 143.165C87.8792 143.196 87.8214 143.244 87.78 143.306Z" fill="#1098F7"/>
<path opacity="0.6" d="M87.78 143.306L86.7702 145.286C86.691 145.444 86.8758 145.603 87.1332 145.603H110.682C110.88 145.603 111.052 145.504 111.065 145.372L111.263 143.392C111.263 143.253 111.104 143.134 110.88 143.134H88.1628C88.0894 143.124 88.0145 143.135 87.9468 143.165C87.8792 143.196 87.8214 143.244 87.78 143.306Z" fill="white"/>
<path d="M90.8556 145.86H90.2418C90.123 145.86 90.0306 145.794 90.0372 145.721L90.3276 143.081C90.3276 143.002 90.4398 142.943 90.5586 142.943H91.1724C91.2912 142.943 91.3836 143.002 91.377 143.081L91.0866 145.721C91.08 145.781 90.9744 145.86 90.8556 145.86Z" fill="#1098F7"/>
<path d="M105.6 145.86H104.993C104.868 145.86 104.775 145.794 104.788 145.721L105.072 143.081C105.072 143.002 105.184 142.943 105.31 142.943H105.917C106.036 142.943 106.128 143.002 106.122 143.081L105.838 145.721C105.838 145.781 105.732 145.86 105.6 145.86Z" fill="#1098F7"/>
<path opacity="0.6" d="M90.8556 145.86H90.2418C90.123 145.86 90.0306 145.794 90.0372 145.721L90.3276 143.081C90.3276 143.002 90.4398 142.943 90.5586 142.943H91.1724C91.2912 142.943 91.3836 143.002 91.377 143.081L91.0866 145.721C91.08 145.781 90.9744 145.86 90.8556 145.86Z" fill="black"/>
<path opacity="0.6" d="M105.6 145.86H104.993C104.868 145.86 104.775 145.794 104.788 145.721L105.072 143.081C105.072 143.002 105.184 142.943 105.31 142.943H105.917C106.036 142.943 106.128 143.002 106.122 143.081L105.838 145.721C105.838 145.781 105.732 145.86 105.6 145.86Z" fill="black"/>
<path d="M129.03 260.324L119.566 261.934L118.49 258.364L128.621 256.628L129.03 260.324Z" fill="#1098F7"/>
<path d="M223.351 76.0717C218.316 68.0105 211.005 61.6231 202.341 57.7171C193.677 53.8112 184.049 52.5621 174.675 54.1278C165.3 55.6935 156.601 60.0037 149.677 66.5134C142.752 73.0231 137.913 81.4399 135.772 90.6995C133.631 99.9591 134.284 109.646 137.647 118.534C141.011 127.423 146.935 135.115 154.67 140.637C162.406 146.159 171.605 149.263 181.104 149.557C190.603 149.852 199.977 147.322 208.039 142.289C213.392 138.947 218.035 134.583 221.702 129.447C225.369 124.31 227.989 118.501 229.41 112.352C230.832 106.203 231.029 99.8342 229.989 93.6092C228.949 87.3841 226.694 81.4248 223.351 76.0717ZM150.427 121.612C146.456 115.25 144.461 107.854 144.693 100.359C144.925 92.863 147.375 85.6047 151.733 79.5014C156.09 73.3982 162.159 68.724 169.173 66.0701C176.187 63.4162 183.83 62.9017 191.137 64.5917C198.443 66.2817 205.084 70.1002 210.22 75.5644C215.356 81.0286 218.756 87.8931 219.991 95.2899C221.226 102.687 220.24 110.284 217.157 117.12C214.075 123.956 209.034 129.725 202.673 133.696C198.449 136.333 193.746 138.112 188.834 138.932C183.922 139.751 178.897 139.595 174.046 138.472C169.194 137.349 164.611 135.282 160.559 132.388C156.506 129.494 153.064 125.83 150.427 121.605V121.612Z" fill="#1098F7"/>
<path d="M223.351 76.0717C218.316 68.0105 211.005 61.6231 202.341 57.7171C193.677 53.8112 184.049 52.5621 174.675 54.1278C165.3 55.6935 156.601 60.0037 149.677 66.5134C142.752 73.0231 137.913 81.4399 135.772 90.6995C133.631 99.9591 134.284 109.646 137.647 118.534C141.011 127.423 146.935 135.115 154.67 140.637C162.406 146.159 171.605 149.263 181.104 149.557C190.603 149.852 199.977 147.322 208.039 142.289C213.392 138.947 218.035 134.583 221.702 129.447C225.369 124.31 227.989 118.501 229.41 112.352C230.832 106.203 231.029 99.8342 229.989 93.6092C228.949 87.3841 226.694 81.4248 223.351 76.0717ZM150.427 121.612C146.456 115.25 144.461 107.854 144.693 100.359C144.925 92.863 147.375 85.6047 151.733 79.5014C156.09 73.3982 162.159 68.724 169.173 66.0701C176.187 63.4162 183.83 62.9017 191.137 64.5917C198.443 66.2817 205.084 70.1002 210.22 75.5644C215.356 81.0286 218.756 87.8931 219.991 95.2899C221.226 102.687 220.24 110.284 217.157 117.12C214.075 123.956 209.034 129.725 202.673 133.696C198.449 136.333 193.746 138.112 188.834 138.932C183.922 139.751 178.897 139.595 174.046 138.472C169.194 137.349 164.611 135.282 160.559 132.388C156.506 129.494 153.064 125.83 150.427 121.605V121.612Z" fill="#1098F7"/>
<path opacity="0.5" d="M223.351 76.0717C218.316 68.0105 211.005 61.6231 202.341 57.7171C193.677 53.8112 184.049 52.5621 174.675 54.1278C165.3 55.6935 156.601 60.0037 149.677 66.5134C142.752 73.0231 137.913 81.4399 135.772 90.6995C133.631 99.9591 134.284 109.646 137.647 118.534C141.011 127.423 146.935 135.115 154.67 140.637C162.406 146.159 171.605 149.263 181.104 149.557C190.603 149.852 199.977 147.322 208.039 142.289C213.392 138.947 218.035 134.583 221.702 129.447C225.369 124.31 227.989 118.501 229.41 112.352C230.832 106.203 231.029 99.8342 229.989 93.6092C228.949 87.3841 226.694 81.4248 223.351 76.0717ZM150.427 121.612C146.456 115.25 144.461 107.854 144.693 100.359C144.925 92.863 147.375 85.6047 151.733 79.5014C156.09 73.3982 162.159 68.724 169.173 66.0701C176.187 63.4162 183.83 62.9017 191.137 64.5917C198.443 66.2817 205.084 70.1002 210.22 75.5644C215.356 81.0286 218.756 87.8931 219.991 95.2899C221.226 102.687 220.24 110.284 217.157 117.12C214.075 123.956 209.034 129.725 202.673 133.696C198.449 136.333 193.746 138.112 188.834 138.932C183.922 139.751 178.897 139.595 174.046 138.472C169.194 137.349 164.611 135.282 160.559 132.388C156.506 129.494 153.064 125.83 150.427 121.605V121.612Z" fill="white"/>
<path opacity="0.2" d="M217.932 79.4575C222.295 86.4479 224.487 94.5749 224.231 102.811C223.975 111.047 221.283 119.022 216.494 125.728C211.706 132.435 205.037 137.57 197.33 140.486C189.624 143.403 181.225 143.968 173.197 142.111C165.169 140.255 157.871 136.059 152.227 130.056C146.584 124.052 142.846 116.51 141.489 108.382C140.131 100.255 141.214 91.9073 144.6 84.3952C147.986 76.883 153.523 70.5435 160.512 66.1783C165.154 63.2789 170.322 61.3225 175.72 60.4207C181.118 59.5189 186.641 59.6895 191.973 60.9226C197.305 62.1558 202.342 64.4274 206.796 67.6076C211.251 70.7879 215.035 74.8145 217.932 79.4575Z" fill="#F1F3F5"/>
<path opacity="0.1" d="M223.852 95.6274L159.172 136.006C153.898 132.427 149.515 127.686 146.362 122.146L216.982 78.0516C220.585 83.308 222.936 89.3207 223.852 95.6274Z" fill="#FCEBEB"/>
</svg>
