<svg width="24" height="24" viewBox="0 0 24 24" fill="none" xmlns="http://www.w3.org/2000/svg">
<rect width="24" height="24" rx="12" fill="#F1F3F5"/>
<path d="M13 12.498H12.5V12.998V17.998C12.5 18.1307 12.4473 18.2578 12.3536 18.3516C12.2598 18.4454 12.1326 18.498 12 18.498C11.8674 18.498 11.7402 18.4454 11.6464 18.3516C11.5527 18.2578 11.5 18.1307 11.5 17.998V12.998V12.498H11H6C5.86739 12.498 5.74022 12.4454 5.64645 12.3516C5.55268 12.2578 5.5 12.1307 5.5 11.998C5.5 11.8654 5.55268 11.7383 5.64645 11.6445C5.74022 11.5507 5.86739 11.498 6 11.498H11H11.5V10.998V5.99805C11.5 5.86544 11.5527 5.73826 11.6464 5.64449C11.7402 5.55073 11.8674 5.49805 12 5.49805C12.1326 5.49805 12.2598 5.55073 12.3536 5.64449C12.4473 5.73826 12.5 5.86544 12.5 5.99805V10.998V11.498H13H18C18.1326 11.498 18.2598 11.5507 18.3536 11.6445C18.4473 11.7383 18.5 11.8654 18.5 11.998C18.5 12.1307 18.4473 12.2578 18.3536 12.3516C18.2598 12.4454 18.1326 12.498 18 12.498H13Z" stroke="#868E96"/>
</svg>
