<svg width="60" height="60" viewBox="0 0 60 60" fill="none" xmlns="http://www.w3.org/2000/svg">
<rect width="60" height="60" rx="4" fill="white"/>
<path d="M14.6205 12.2524C15.7771 12.2524 16.7169 11.3101 16.7169 10.1262C16.7169 8.96644 15.7771 8 14.6205 8C13.4639 8 12.5 8.96644 12.5 10.1262C12.5 11.3101 13.4639 12.2524 14.6205 12.2524ZM12.9096 14.0403V26H16.3313V14.0403H12.9096Z" fill="#1098F7"/>
<path d="M25.8923 17.0362C27.8441 17.0362 28.7357 18.6067 28.7357 20.443V26H32.1574V20.0322C32.1574 16.5289 30.061 13.702 25.8923 13.702C21.7236 13.702 19.6755 16.553 19.6755 20.0322V26H23.0971V20.443C23.0971 18.6067 23.9646 17.0362 25.8923 17.0362Z" fill="#1098F7"/>
<path d="M41.2349 17.0362C43.1867 17.0362 44.0783 18.6067 44.0783 20.443V26H47.5V20.0322C47.5 16.5289 45.4036 13.702 41.2349 13.702C37.0663 13.702 35.0181 16.553 35.0181 20.0322V26H38.4398V20.443C38.4398 18.6067 39.3072 17.0362 41.2349 17.0362Z" fill="#1098F7"/>
<path d="M16.0713 32.2796C17.2415 32.2796 18.1923 31.3313 18.1923 30.1398C18.1923 28.9726 17.2415 28 16.0713 28C14.9011 28 13.926 28.9726 13.926 30.1398C13.926 31.3313 14.9011 32.2796 16.0713 32.2796ZM14.316 34.079V46.6261C14.316 47.8176 13.5603 48.6444 12 48.6444L12.195 51.9027C15.8275 51.9027 17.7779 49.7872 17.7779 46.7477V34.079H14.316Z" fill="#0AA778"/>
<path d="M26.633 46.4316C30.3386 46.4316 33.191 43.5623 33.191 40.0608C33.191 36.6079 30.363 33.7143 26.633 33.7143C22.9518 33.7143 20.0994 36.5836 20.0994 40.0608C20.0994 43.5623 22.9274 46.4316 26.633 46.4316ZM26.633 43.1976C24.8533 43.1976 23.5612 41.7872 23.5612 40.0851C23.5612 38.383 24.8533 36.9726 26.633 36.9726C28.4127 36.9726 29.7292 38.383 29.7292 40.0851C29.7292 41.7872 28.4127 43.1976 26.633 43.1976Z" fill="#0AA778"/>
<path d="M41.3201 52C45.2939 52 48 49.2523 48 45.0456V34.079H44.4894V39.9878C44.4894 41.7143 43.3192 43.003 41.7589 43.003C40.0524 43.003 39.1016 41.8116 39.1016 40.0608V34.079H35.6885V40.1824C35.6885 43.7568 37.3951 46.2614 41.3201 46.2614C42.8072 46.2614 43.8799 45.7264 44.5382 44.7538V45.0942C44.5382 47.3313 43.3436 48.8389 41.2714 48.8389C39.7111 48.8389 38.6384 48.0365 38.1021 46.9909L35.2497 48.5471C36.3468 50.7842 38.4434 52 41.3201 52Z" fill="#0AA778"/>
</svg>
