<svg width="14" height="15" viewBox="0 0 14 15" fill="none" xmlns="http://www.w3.org/2000/svg">
<path d="M8 8.49805H7.5V8.99805V13.998C7.5 14.1307 7.44732 14.2578 7.35355 14.3516C7.25979 14.4454 7.13261 14.498 7 14.498C6.86739 14.498 6.74021 14.4454 6.64645 14.3516C6.55268 14.2578 6.5 14.1307 6.5 13.998V8.99805V8.49805H6H1C0.867392 8.49805 0.740215 8.44537 0.646447 8.3516C0.552678 8.25783 0.5 8.13065 0.5 7.99805C0.5 7.86544 0.552678 7.73826 0.646447 7.64449C0.740215 7.55073 0.867392 7.49805 1 7.49805H6H6.5V6.99805V1.99805C6.5 1.86544 6.55268 1.73826 6.64645 1.64449C6.74021 1.55073 6.86739 1.49805 7 1.49805C7.13261 1.49805 7.25979 1.55073 7.35355 1.64449C7.44732 1.73826 7.5 1.86544 7.5 1.99805V6.99805V7.49805H8H13C13.1326 7.49805 13.2598 7.55073 13.3536 7.64449C13.4473 7.73826 13.5 7.86544 13.5 7.99805C13.5 8.13066 13.4473 8.25783 13.3536 8.3516C13.2598 8.44537 13.1326 8.49805 13 8.49805H8Z" stroke="#868E96"/>
</svg>
