<svg width="17" height="16" viewBox="0 0 17 16" fill="none" xmlns="http://www.w3.org/2000/svg">
<path d="M5.99533 4.89333L1.742 5.51L1.66667 5.52533C1.55263 5.55561 1.44866 5.61561 1.36539 5.6992C1.28213 5.7828 1.22254 5.88699 1.19271 6.00115C1.16288 6.11531 1.16388 6.23534 1.19562 6.34898C1.22735 6.46263 1.28868 6.56581 1.37333 6.648L4.45467 9.64733L3.728 13.884L3.71933 13.9573C3.71235 14.0753 3.73684 14.193 3.7903 14.2983C3.84376 14.4037 3.92426 14.493 4.02356 14.557C4.12286 14.621 4.23739 14.6575 4.35543 14.6627C4.47347 14.668 4.59078 14.6417 4.69533 14.5867L8.49933 12.5867L12.2947 14.5867L12.3613 14.6173C12.4714 14.6607 12.591 14.674 12.7078 14.6558C12.8247 14.6377 12.9347 14.5888 13.0264 14.5142C13.1181 14.4395 13.1884 14.3418 13.2299 14.2311C13.2714 14.1204 13.2827 14.0006 13.2627 13.884L12.5353 9.64733L15.618 6.64733L15.67 6.59067C15.7443 6.49918 15.793 6.38964 15.8111 6.2732C15.8293 6.15676 15.8163 6.03759 15.7734 5.92782C15.7305 5.81806 15.6593 5.72162 15.567 5.64834C15.4747 5.57506 15.3646 5.52756 15.248 5.51067L10.9947 4.89333L9.09333 1.04C9.03832 0.928356 8.95315 0.834343 8.84746 0.768603C8.74178 0.702863 8.6198 0.66802 8.49533 0.66802C8.37087 0.66802 8.24889 0.702863 8.14321 0.768603C8.03752 0.834343 7.95235 0.928356 7.89733 1.04L5.99533 4.89333Z" fill="#FFD324"/>
</svg>
