<svg width="18" height="21" viewBox="0 0 18 21" fill="none" xmlns="http://www.w3.org/2000/svg">
<path d="M6 9C6 9.79565 6.31607 10.5587 6.87868 11.1213C7.44129 11.6839 8.20435 12 9 12C9.79565 12 10.5587 11.6839 11.1213 11.1213C11.6839 10.5587 12 9.79565 12 9C12 8.20435 11.6839 7.44129 11.1213 6.87868C10.5587 6.31607 9.79565 6 9 6C8.20435 6 7.44129 6.31607 6.87868 6.87868C6.31607 7.44129 6 8.20435 6 9Z" stroke="black" stroke-width="2" stroke-linecap="round" stroke-linejoin="round"/>
<path d="M14.657 14.657L10.414 18.9C10.039 19.2746 9.53059 19.4851 9.0005 19.4851C8.47042 19.4851 7.96202 19.2746 7.587 18.9L3.343 14.657C2.22422 13.5382 1.46234 12.1127 1.15369 10.5609C0.845043 9.00902 1.00349 7.40051 1.60901 5.93873C2.21452 4.47694 3.2399 3.22754 4.55548 2.3485C5.87107 1.46947 7.41777 1.00029 9 1.00029C10.5822 1.00029 12.1289 1.46947 13.4445 2.3485C14.7601 3.22754 15.7855 4.47694 16.391 5.93873C16.9965 7.40051 17.155 9.00902 16.8463 10.5609C16.5377 12.1127 15.7758 13.5382 14.657 14.657Z" stroke="black" stroke-width="2" stroke-linecap="round" stroke-linejoin="round"/>
</svg>
