<svg width="16" height="16" viewBox="0 0 16 16" fill="none" xmlns="http://www.w3.org/2000/svg">
<path d="M8.00018 5.99989V8.66656M8.00018 11.3332H8.00684M6.82684 2.63789L1.21218 12.0112C1.09649 12.2117 1.0353 12.4389 1.03467 12.6704C1.03405 12.9019 1.09402 13.1294 1.20862 13.3305C1.32322 13.5316 1.48846 13.6992 1.68791 13.8166C1.88736 13.9341 2.11407 13.9972 2.34551 13.9999H13.5755C13.8069 13.9972 14.0337 13.9341 14.2331 13.8166C14.4326 13.6992 14.5978 13.5316 14.7124 13.3305C14.827 13.1294 14.887 12.9019 14.8863 12.6704C14.8857 12.4389 14.8245 12.2117 14.7088 12.0112L9.09351 2.63789C8.97527 2.44322 8.80888 2.28228 8.61038 2.1706C8.41187 2.05891 8.18794 2.00024 7.96018 2.00024C7.73241 2.00024 7.50848 2.05891 7.30998 2.1706C7.11147 2.28228 6.94508 2.44322 6.82684 2.63789Z" stroke="#FFD324" stroke-linecap="round" stroke-linejoin="round"/>
</svg>
