<svg width="16" height="16" viewBox="0 0 16 16" fill="none" xmlns="http://www.w3.org/2000/svg">
<path d="M8 5V8M8 11H8.0075M1.25 8C1.25 8.88642 1.42459 9.76417 1.76381 10.5831C2.10303 11.4021 2.60023 12.1462 3.22703 12.773C3.85382 13.3998 4.59794 13.897 5.41689 14.2362C6.23583 14.5754 7.11358 14.75 8 14.75C8.88642 14.75 9.76417 14.5754 10.5831 14.2362C11.4021 13.897 12.1462 13.3998 12.773 12.773C13.3998 12.1462 13.897 11.4021 14.2362 10.5831C14.5754 9.76417 14.75 8.88642 14.75 8C14.75 6.20979 14.0388 4.4929 12.773 3.22703C11.5071 1.96116 9.79021 1.25 8 1.25C6.20979 1.25 4.4929 1.96116 3.22703 3.22703C1.96116 4.4929 1.25 6.20979 1.25 8Z" stroke="#2DC954" stroke-width="1.5" stroke-linecap="round" stroke-linejoin="round"/>
</svg>
