<svg width="94" height="32" viewBox="0 0 94 32" fill="none" xmlns="http://www.w3.org/2000/svg">
<path d="M2.78248 6.02786C4.30019 6.02786 5.53334 4.80294 5.53334 3.26393C5.53334 1.75633 4.30019 0.5 2.78248 0.5C1.26476 0.5 0 1.75633 0 3.26393C0 4.80294 1.26476 6.02786 2.78248 6.02786ZM0.537524 8.35208V23.8992H5.02743V8.35208H0.537524Z" fill="#1098F7"/>
<path d="M17.5733 12.2467C20.1344 12.2467 21.3043 14.2882 21.3043 16.6753V23.8992H25.7942V16.1413C25.7942 11.5871 23.0434 7.91236 17.5733 7.91236C12.1032 7.91236 9.41556 11.6185 9.41556 16.1413V23.8992H13.9055V16.6753C13.9055 14.2882 15.0438 12.2467 17.5733 12.2467Z" fill="#1098F7"/>
<path d="M37.7057 12.2467C40.2669 12.2467 41.4368 14.2882 41.4368 16.6753V23.8992H45.9267V16.1413C45.9267 11.5871 43.1758 7.91236 37.7057 7.91236C32.2356 7.91236 29.548 11.6185 29.548 16.1413V23.8992H34.0379V16.6753C34.0379 14.2882 35.1762 12.2467 37.7057 12.2467Z" fill="#1098F7"/>
<path d="M52.5894 6.02786C54.1071 6.02786 55.3403 4.80294 55.3403 3.26393C55.3403 1.75633 54.1071 0.5 52.5894 0.5C51.0717 0.5 49.8069 1.75633 49.8069 3.26393C49.8069 4.80294 51.0717 6.02786 52.5894 6.02786ZM50.3128 8.35208V24.5588C50.3128 26.0978 49.3326 27.1657 47.309 27.1657L47.562 31.3744C52.2732 31.3744 54.8027 28.6418 54.8027 24.7158V8.35208H50.3128Z" fill="#0AA778"/>
<path d="M66.2876 24.3075C71.0937 24.3075 74.7932 20.6013 74.7932 16.0785C74.7932 11.6185 71.1253 7.88095 66.2876 7.88095C61.5132 7.88095 57.8137 11.5871 57.8137 16.0785C57.8137 20.6013 61.4815 24.3075 66.2876 24.3075ZM66.2876 20.1302C63.9794 20.1302 62.3036 18.3085 62.3036 16.1099C62.3036 13.9113 63.9794 12.0897 66.2876 12.0897C68.5958 12.0897 70.3032 13.9113 70.3032 16.1099C70.3032 18.3085 68.5958 20.1302 66.2876 20.1302Z" fill="#0AA778"/>
<path d="M85.3364 31.5C90.4903 31.5 94 27.9509 94 22.5172V8.35208H89.4469V15.9843C89.4469 18.2143 87.9291 19.8789 85.9055 19.8789C83.6922 19.8789 82.459 18.3399 82.459 16.0785V8.35208H78.0324V16.2356C78.0324 20.8526 80.2457 24.0876 85.3364 24.0876C87.2651 24.0876 88.6564 23.3967 89.5101 22.1403V22.58C89.5101 25.4696 87.9608 27.4169 85.2731 27.4169C83.2495 27.4169 81.8583 26.3804 81.1627 25.0299L77.4632 27.04C78.8861 29.9296 81.6053 31.5 85.3364 31.5Z" fill="#0AA778"/>
</svg>
