<svg width="24" height="24" viewBox="0 0 24 24" fill="none" xmlns="http://www.w3.org/2000/svg">
<path d="M9 16V8H13C13.5304 8 14.0391 8.21071 14.4142 8.58579C14.7893 8.96086 15 9.46957 15 10C15 10.5304 14.7893 11.0391 14.4142 11.4142C14.0391 11.7893 13.5304 12 13 12H9M3 5C3 4.46957 3.21071 3.96086 3.58579 3.58579C3.96086 3.21071 4.46957 3 5 3H19C19.5304 3 20.0391 3.21071 20.4142 3.58579C20.7893 3.96086 21 4.46957 21 5V19C21 19.5304 20.7893 20.0391 20.4142 20.4142C20.0391 20.7893 19.5304 21 19 21H5C4.46957 21 3.96086 20.7893 3.58579 20.4142C3.21071 20.0391 3 19.5304 3 19V5Z" stroke="#0AA778
" stroke-width="1.5" stroke-linecap="round" stroke-linejoin="round"/>
</svg>
