<svg width="24" height="24" viewBox="0 0 24 24" fill="none" xmlns="http://www.w3.org/2000/svg">
<path d="M8 14C8 15.0609 8.42143 16.0783 9.17157 16.8284C9.92172 17.5786 10.9391 18 12 18C13.0609 18 14.0783 17.5786 14.8284 16.8284C15.5786 16.0783 16 15.0609 16 14M8 14C8 12.9391 8.42143 11.9217 9.17157 11.1716C9.92172 10.4214 10.9391 10 12 10C13.0609 10 14.0783 10.4214 14.8284 11.1716C15.5786 11.9217 16 12.9391 16 14M8 14C9.333 13.333 10.667 13.333 12 14C13.333 14.667 14.667 14.667 16 14M8 6H8.01M11 6H11.01M14 6H16M5 5C5 4.46957 5.21071 3.96086 5.58579 3.58579C5.96086 3.21071 6.46957 3 7 3H17C17.5304 3 18.0391 3.21071 18.4142 3.58579C18.7893 3.96086 19 4.46957 19 5V19C19 19.5304 18.7893 20.0391 18.4142 20.4142C18.0391 20.7893 17.5304 21 17 21H7C6.46957 21 5.96086 20.7893 5.58579 20.4142C5.21071 20.0391 5 19.5304 5 19V5Z" stroke="#2DC954"  stroke-width="1.5" stroke-linecap="round" stroke-linejoin="round"/>
</svg>
