<svg width="24" height="24" viewBox="0 0 24 24" fill="none" xmlns="http://www.w3.org/2000/svg">
<path d="M12 9.00002V13M12 17H12.01M10.24 3.95702L1.81802 18.017C1.64449 18.3177 1.5527 18.6586 1.55177 19.0058C1.55083 19.353 1.64078 19.6943 1.81268 19.996C1.98458 20.2976 2.23244 20.549 2.53162 20.7251C2.83079 20.9013 3.17086 20.996 3.51802 21H20.363C20.7102 20.996 21.0502 20.9013 21.3494 20.7251C21.6486 20.549 21.8965 20.2976 22.0684 19.996C22.2403 19.6943 22.3302 19.353 22.3293 19.0058C22.3283 18.6586 22.2365 18.3177 22.063 18.017L13.64 3.95702C13.4627 3.66501 13.2131 3.42361 12.9153 3.25608C12.6176 3.08855 12.2817 3.00055 11.94 3.00055C11.5984 3.00055 11.2625 3.08855 10.9647 3.25608C10.667 3.42361 10.4174 3.66501 10.24 3.95702Z" stroke="#212529" stroke-width="1.5" stroke-linecap="round" stroke-linejoin="round"/>
</svg>
