<svg width="24" height="24" viewBox="0 0 24 24" fill="none" xmlns="http://www.w3.org/2000/svg">
<path d="M9.88 9.878C9.59767 10.1557 9.37311 10.4866 9.21929 10.8515C9.06546 11.2164 8.98541 11.6082 8.98375 12.0042C8.98209 12.4002 9.05886 12.7926 9.20962 13.1588C9.36038 13.5251 9.58216 13.8578 9.86215 14.1378C10.1421 14.4179 10.4748 14.6398 10.841 14.7906C11.2072 14.9415 11.5996 15.0183 11.9956 15.0167C12.3916 15.0152 12.7834 14.9352 13.1484 14.7815C13.5133 14.6277 13.8442 14.4033 14.122 14.121M14.702 10.696C14.4043 10.0811 13.9064 9.58564 13.29 9.291M10 6H19C19.5304 6 20.0391 6.21071 20.4142 6.58579C20.7893 6.96086 21 7.46957 21 8V16C21 16.294 20.936 16.574 20.822 16.825M18 18H5C4.46957 18 3.96086 17.7893 3.58579 17.4142C3.21071 17.0391 3 16.5304 3 16V8C3 7.46957 3.21071 6.96086 3.58579 6.58579C3.96086 6.21071 4.46957 6 5 6H6M18 12H18.01M6 12H6.01M3 3L21 21" stroke="#212529" stroke-width="1.5" stroke-linecap="round" stroke-linejoin="round"/>
</svg>
