<svg width="24" height="24" viewBox="0 0 24 24" fill="none" xmlns="http://www.w3.org/2000/svg">
<path d="M3 3L21 21M9 5H18C18.7956 5 19.5587 5.31607 20.1213 5.87868C20.6839 6.44129 21 7.20435 21 8V16C21.0003 16.2947 20.9572 16.5879 20.872 16.87M18.87 18.872C18.5879 18.9572 18.2947 19.0003 18 19H6C5.20435 19 4.44129 18.6839 3.87868 18.1213C3.31607 17.5587 3 16.7956 3 16V8C2.99984 7.35719 3.20616 6.73132 3.58855 6.21462C3.97095 5.69791 4.5092 5.3177 5.124 5.13M3 11H11M15 11H21M7 15H7.01M11 15H13" stroke="#212529" stroke-width="1.5" stroke-linecap="round" stroke-linejoin="round"/>
</svg>
