<svg width="24" height="24" viewBox="0 0 24 24" fill="none" xmlns="http://www.w3.org/2000/svg">
<path d="M8.99999 12C8.99999 12.7956 9.31606 13.5587 9.87867 14.1213C10.4413 14.6839 11.2043 15 12 15C12.7956 15 13.5587 14.6839 14.1213 14.1213C14.6839 13.5587 15 12.7956 15 12M8.99999 12C8.99999 11.2044 9.31606 10.4413 9.87867 9.87868C10.4413 9.31607 11.2043 9 12 9C12.7956 9 13.5587 9.31607 14.1213 9.87868C14.6839 10.4413 15 11.2044 15 12M8.99999 12L6.33599 12.366C5.47999 12.506 4.86399 12.684 4.48999 12.902C3.80455 13.3032 3.3054 13.959 3.10124 14.7266C2.89709 15.4941 3.00446 16.3113 3.39999 17C3.5939 17.3406 3.85335 17.6394 4.16336 17.8792C4.47336 18.119 4.8278 18.295 5.20619 18.3971C5.58459 18.4992 5.97946 18.5253 6.36801 18.474C6.75655 18.4226 7.13109 18.2949 7.46999 18.098C7.81799 17.893 8.24099 17.494 8.73999 16.893L10.5 15L9.77599 16.36C9.25899 17.558 8.99999 18.438 8.99999 19C8.99999 19.7956 9.31606 20.5587 9.87867 21.1213C10.4413 21.6839 11.2043 22 12 22C12.7956 22 13.5587 21.6839 14.1213 21.1213C14.6839 20.5587 15 19.7956 15 19C15 18.439 14.74 17.559 14.224 16.36L13.5 15L15.26 16.893C15.759 17.494 16.182 17.896 16.53 18.098C16.8689 18.2949 17.2434 18.4226 17.632 18.474C18.0205 18.5253 18.4154 18.4992 18.7938 18.3971C19.1722 18.295 19.5266 18.119 19.8366 17.8792C20.1466 17.6394 20.4061 17.3406 20.6 17C20.9955 16.3113 21.1029 15.4941 20.8987 14.7266C20.6946 13.959 20.1954 13.3032 19.51 12.902C19.098 12.663 18.4 12.471 17.4 12.326L15 12M8.99999 12L6.59999 11.675C5.59999 11.53 4.90199 11.338 4.48999 11.099C3.80428 10.6978 3.30494 10.0418 3.10077 9.27399C2.8966 8.5062 3.00415 7.68884 3.39999 7C3.59382 6.65932 3.8532 6.36041 4.16317 6.12052C4.47314 5.88063 4.82756 5.70452 5.20596 5.60234C5.58437 5.50016 5.97926 5.47395 6.36785 5.52521C6.75644 5.57647 7.13103 5.70419 7.46999 5.901C7.81799 6.104 8.24099 6.505 8.73999 7.106L10.5 9C9.49999 6.708 8.99999 5.375 8.99999 5C8.99999 4.20435 9.31606 3.44129 9.87867 2.87868C10.4413 2.31607 11.2043 2 12 2C12.7956 2 13.5587 2.31607 14.1213 2.87868C14.6839 3.44129 15 4.20435 15 5C15 5.562 14.741 6.442 14.224 7.64L13.5 9L15.26 7.107C15.759 6.507 16.182 6.107 16.53 5.902C16.869 5.70519 17.2435 5.57747 17.6321 5.52621C18.0207 5.47495 18.4156 5.50116 18.794 5.60334C19.1724 5.70552 19.5268 5.88163 19.8368 6.12152C20.1468 6.36141 20.4062 6.66032 20.6 7.001C20.9955 7.68975 21.1029 8.50687 20.8987 9.27442C20.6946 10.042 20.1954 10.6978 19.51 11.099C19.136 11.316 18.52 11.495 17.664 11.634L15 12" stroke="#212529" stroke-width="1.5" stroke-linecap="round" stroke-linejoin="round"/>
</svg>
