<svg width="24" height="24" viewBox="0 0 24 24" fill="none" xmlns="http://www.w3.org/2000/svg">
<path d="M17 4.5C18.007 5.17149 18.8683 6.03921 19.5322 7.05125C20.1961 8.06329 20.6491 9.19885 20.864 10.39C21.2382 10.632 21.5409 10.9696 21.7409 11.3679C21.9408 11.7661 22.0306 12.2106 22.001 12.6553C21.9714 13.0999 21.8235 13.5286 21.5726 13.8969C21.3217 14.2652 20.977 14.5597 20.574 14.75C19.991 16.5642 18.8472 18.1466 17.3074 19.2692C15.7675 20.3918 13.9111 20.9967 12.0055 20.9967C10.0999 20.9967 8.24345 20.3918 6.7036 19.2692C5.16375 18.1466 4.01997 16.5642 3.43699 14.75C3.03402 14.5597 2.68924 14.2652 2.43834 13.8969C2.18744 13.5286 2.03954 13.0999 2.00997 12.6553C1.98039 12.2106 2.07021 11.7661 2.27012 11.3679C2.47003 10.9696 2.77277 10.632 3.14699 10.39C3.35763 9.22247 3.79703 8.1081 4.43991 7.11099C5.0828 6.11389 5.91647 5.25374 6.89299 4.58M9.49999 16C9.82587 16.3326 10.2148 16.5968 10.6441 16.7772C11.0734 16.9576 11.5344 17.0505 12 17.0505C12.4656 17.0505 12.9266 16.9576 13.3559 16.7772C13.7851 16.5968 14.1741 16.3326 14.5 16M8.49999 2C9.99999 3 11 5.5 11 7M12.5 2C14 4 14.5 5.5 14.5 7M8.99999 12H9.00999M15 12H15.01" stroke="#2DC954" stroke-width="1.5" stroke-linecap="round" stroke-linejoin="round"/>
</svg>
