<svg width="24" height="24" viewBox="0 0 24 24" fill="none" xmlns="http://www.w3.org/2000/svg">
<path d="M6 11L10 9L13.5 12L12 14M3 16.75C3.31129 16.9048 3.65249 16.9901 4 17C4.3895 17.0082 4.77512 16.9214 5.12358 16.7472C5.47203 16.5729 5.77283 16.3165 6 16C6.22717 15.6835 6.52797 15.4271 6.87642 15.2528C7.22488 15.0786 7.6105 14.9918 8 15C8.3895 14.9918 8.77512 15.0786 9.12358 15.2528C9.47203 15.4271 9.77283 15.6835 10 16C10.2272 16.3165 10.528 16.5729 10.8764 16.7472C11.2249 16.9214 11.6105 17.0082 12 17C12.3895 17.0082 12.7751 16.9214 13.1236 16.7472C13.472 16.5729 13.7728 16.3165 14 16C14.2272 15.6835 14.528 15.4271 14.8764 15.2528C15.2249 15.0786 15.6105 14.9918 16 15C16.3895 14.9918 16.7751 15.0786 17.1236 15.2528C17.472 15.4271 17.7728 15.6835 18 16C18.2272 16.3165 18.528 16.5729 18.8764 16.7472C19.2249 16.9214 19.6105 17.0082 20 17C20.3475 16.9901 20.6887 16.9048 21 16.75M15 9C15 9.26522 15.1054 9.51957 15.2929 9.70711C15.4804 9.89464 15.7348 10 16 10C16.2652 10 16.5196 9.89464 16.7071 9.70711C16.8946 9.51957 17 9.26522 17 9C17 8.73478 16.8946 8.48043 16.7071 8.29289C16.5196 8.10536 16.2652 8 16 8C15.7348 8 15.4804 8.10536 15.2929 8.29289C15.1054 8.48043 15 8.73478 15 9Z" stroke="#2DC954" stroke-width="1.5" stroke-linecap="round" stroke-linejoin="round"/>
</svg>
